<?xml version="1.0" encoding="UTF-8"?>
<svg version="1.1" xmlns="http://www.w3.org/2000/svg" width="225" height="225">
<path d="M0 0 C6.27 0 12.54 0 19 0 C19 2.97 19 5.94 19 9 C22.96 9.66 26.92 10.32 31 11 C32.32 9.35 33.64 7.7 35 6 C39.10110762 7.40398279 41.98089159 9.37087038 45.3125 12.125 C46.63701172 13.21167969 46.63701172 13.21167969 47.98828125 14.3203125 C48.65214844 14.87460937 49.31601563 15.42890625 50 16 C49.42551795 18.3229057 48.82553865 20.63074489 48.1875 22.9375 C47.67121102 26.14157862 47.67121102 26.14157862 49.9375 28.75 C50.618125 29.4925 51.29875 30.235 52 31 C52 31.66 52 32.32 52 33 C56.95 32.505 56.95 32.505 62 32 C62.86524753 34.43407005 63.71742865 36.87143184 64.5625 39.3125 C64.9327832 40.34793945 64.9327832 40.34793945 65.31054688 41.40429688 C67.11328125 46.66015625 67.11328125 46.66015625 66 50 C63.39757586 51.64820195 62.13751221 52 59 52 C58.97890464 53.9166638 59.00978557 55.83394511 59.0625 57.75 C59.07410156 58.81734375 59.08570313 59.8846875 59.09765625 60.984375 C59.92969464 65.02703002 59.92969464 65.02703002 67 68 C65.35 73.61 63.7 79.22 62 85 C59.03 84.67 56.06 84.34 53 84 C51.02 86.97 49.04 89.94 47 93 C47.515625 93.7425 48.03125 94.485 48.5625 95.25 C50 98 50 98 49.8125 100.25 C49 102 49 102 47 103 C55.58 103 64.16 103 73 103 C73 107 73 107 70.5 109.75 C69.675 110.4925 68.85 111.235 68 112 C70.31 113.65 72.62 115.3 75 117 C74.67 117.99 74.34 118.98 74 120 C68.39 120 62.78 120 57 120 C57 122.64 57 125.28 57 128 C55.99124788 130.81009519 55.66604583 131.66697708 53 133 C50.2700595 133.11403571 47.56504227 133.16784178 44.83422852 133.17700195 C43.5681778 133.18685875 43.5681778 133.18685875 42.27655029 133.19691467 C39.47733478 133.216662 36.67817286 133.2283117 33.87890625 133.23828125 C32.44752477 133.24439454 32.44752477 133.24439454 30.98722649 133.25063133 C25.9393218 133.27149537 20.89144435 133.28579725 15.84350586 133.29516602 C10.6197939 133.30624828 5.39650584 133.34066807 0.17294407 133.38033772 C-3.83584915 133.40642799 -7.84454005 133.41485093 -11.85341072 133.41844749 C-13.77960139 133.42333092 -15.70578697 133.43499449 -17.63189507 133.45348549 C-20.3232213 133.47772241 -23.01343302 133.47694084 -25.70483398 133.4699707 C-26.90421349 133.48918579 -26.90421349 133.48918579 -28.12782288 133.50878906 C-31.29896385 133.47875924 -33.44509706 133.42044864 -36.01844788 131.47062683 C-37 129 -37 129 -37 121 C-43.6 121 -50.2 121 -57 121 C-55.04783565 117.09567131 -53.12613393 114.96160056 -50 112 C-50.99 111.21625 -51.98 110.4325 -53 109.625 C-53.99 108.75875 -54.98 107.8925 -56 107 C-56 106.34 -56 105.68 -56 105 C-46.43 104.67 -36.86 104.34 -27 104 C-28.32 103.01 -29.64 102.02 -31 101 C-30.44271087 97.65626525 -29.64826111 94.96687001 -28 92 C-28.825 91.05125 -29.65 90.1025 -30.5 89.125 C-33 86.25 -33 86.25 -33 84 C-37.95 84.495 -37.95 84.495 -43 85 C-44.65 79.39 -46.3 73.78 -48 68 C-43 65 -43 65 -41 64 C-41.020625 62.7625 -41.04125 61.525 -41.0625 60.25 C-41.06766681 57.3359175 -40.93015558 54.79046673 -40 52 C-41.1446875 51.814375 -41.1446875 51.814375 -42.3125 51.625 C-45 51 -45 51 -48 49 C-44.92482916 37.47835991 -44.92482916 37.47835991 -43 32 C-39.7 32.33 -36.4 32.66 -33 33 C-32.71125 32.21625 -32.4225 31.4325 -32.125 30.625 C-31 28 -31 28 -29 26 C-29.37174438 22.57995169 -30.15721759 19.32791005 -31 16 C-29.44384991 14.70069021 -27.8797832 13.41085862 -26.3125 12.125 C-25.00732422 11.04605469 -25.00732422 11.04605469 -23.67578125 9.9453125 C-21.1522354 8.11067624 -18.93661514 7.00532771 -16 6 C-14.68 7.65 -13.36 9.3 -12 11 C-10.53984709 10.71758359 -9.08190207 10.42373386 -7.625 10.125 C-6.40683594 9.88136719 -6.40683594 9.88136719 -5.1640625 9.6328125 C-2.81326077 9.13341068 -2.81326077 9.13341068 -1 7 C-0.67 4.69 -0.34 2.38 0 0 Z M3 3 C2.67 5.97 2.34 8.94 2 12 C5.96 12 9.92 12 14 12 C14.495 15.465 14.495 15.465 15 19 C12.525 18.505 12.525 18.505 10 18 C9.505 15.525 9.505 15.525 9 13 C8.34 13.66 7.68 14.32 7 15 C7.3185177 17.10820797 7.3185177 17.10820797 8 19 C5.2160817 17.60804085 5.02101003 15.84424221 4 13 C3.67 13.99 3.34 14.98 3 16 C2.67 16.99 2.34 17.98 2 19 C1.01 19 0.02 19 -1 19 C-2.6875 17 -2.6875 17 -4 15 C-3.505 17.97 -3.505 17.97 -3 21 C-3.99 21 -4.98 21 -6 21 C-6.495 19.02 -6.495 19.02 -7 17 C-8.24546405 19.49092811 -7.7767578 20.41080733 -7 23 C-7.66 23 -8.32 23 -9 23 C-9.495 21.02 -9.495 21.02 -10 19 C-10.99 19.495 -10.99 19.495 -12 20 C-11.34 21.32 -10.68 22.64 -10 24 C-10.433125 23.505 -10.86625 23.01 -11.3125 22.5 C-12.99740483 20.66781808 -12.99740483 20.66781808 -16 21 C-13.5 18.5 -13.5 18.5 -11 16 C-13.31 14.02 -15.62 12.04 -18 10 C-20.97 11.98 -23.94 13.96 -27 16 C-26.1643602 20.61885454 -26.1643602 20.61885454 -25.22265625 23.51953125 C-25 26 -25 26 -26.43359375 28.38671875 C-27.42552734 29.52560547 -27.42552734 29.52560547 -28.4375 30.6875 C-31.17088685 33.4701295 -31.17088685 33.4701295 -32 37 C-34.64 36.34 -37.28 35.68 -40 35 C-40.67305018 36.60149886 -41.33822227 38.20631029 -42 39.8125 C-42.37125 40.70582031 -42.7425 41.59914062 -43.125 42.51953125 C-44.16633237 45.0331433 -44.16633237 45.0331433 -44 48 C-41.35261084 49.4606285 -40.10551666 50 -37 50 C-37.00600397 52.60872469 -37.05326709 55.20545701 -37.125 57.8125 C-37.12242188 58.55048828 -37.11984375 59.28847656 -37.1171875 60.04882812 C-37.1953125 62.20703125 -37.1953125 62.20703125 -38 66 C-41.0546875 68.01171875 -41.0546875 68.01171875 -44 69 C-43.55170486 70.98146451 -43.09107502 72.96014211 -42.625 74.9375 C-42.36976562 76.03964844 -42.11453125 77.14179687 -41.8515625 78.27734375 C-41.57054687 79.17582031 -41.28953125 80.07429688 -41 81 C-37.93109813 82.53445094 -35.29905734 81.54984289 -32 81 C-31.01364163 82.41166886 -30.03618745 83.82956184 -29.0625 85.25 C-28.51722656 86.03890625 -27.97195312 86.8278125 -27.41015625 87.640625 C-26.07599595 89.87284887 -25.25056371 91.41972691 -25 94 C-25.66 94.99 -26.32 95.98 -27 97 C-27.02973234 99.05086336 -27.02973234 99.05086336 -26 101 C-23.93527683 102.77930888 -23.93527683 102.77930888 -21.4375 104.25 C-20.19806641 105.03117187 -20.19806641 105.03117187 -18.93359375 105.828125 C-18.29550781 106.21484375 -17.65742187 106.6015625 -17 107 C-15.62437146 105.71034824 -14.29233607 104.37310707 -13 103 C-13 102.34 -13 101.68 -13 101 C-8.05 102.65 -3.1 104.3 2 106 C2.495 109.96 2.495 109.96 3 114 C4.65 114 6.3 114 8 114 C6.60240095 110.45481116 6.60240095 110.45481116 5 107 C6.98 106.505 6.98 106.505 9 106 C9 104.68 9 103.36 9 102 C5.90008774 101.30001981 2.84524901 100.86844108 -0.3125 100.5625 C-4.70251478 100.09187865 -8.7710556 99.28378669 -13 98 C-14 96 -14 96 -14 93 C-13.01 92.505 -13.01 92.505 -12 92 C-9.6875 92.77734375 -9.6875 92.77734375 -7 93.9375 C-3.61082782 95.49740728 -3.61082782 95.49740728 0 96 C0.33 96.66 0.66 97.32 1 98 C1 97.34 1 96.68 1 96 C2.65 96.33 4.3 96.66 6 97 C6.33 96.34 6.66 95.68 7 95 C6.23816406 94.85304688 5.47632813 94.70609375 4.69140625 94.5546875 C-6.29664292 92.16777045 -14.59596604 87.44802932 -21 78 C-25.80046074 68.31153213 -27.72947006 58.56620324 -24.875 47.9375 C-21.39819786 37.76583233 -16.22403997 30.756984 -6.6640625 25.78515625 C2.81197751 21.36195485 11.59699227 20.71831809 21.578125 24.01953125 C31.78891468 28.15325417 38.07450953 35.29782542 43 45 C46.69954846 54.4680387 45.44769683 64.6558888 42 74 C38.42370179 80.57040835 33.84875373 85.43210791 28 90 C27.34 90.66 26.68 91.32 26 92 C28.16874252 91.49396008 29.99967627 91.00016187 32 90 C32 90.66 32 91.32 32 92 C32.66 92.66 33.32 93.32 34 94 C33.34 94 32.68 94 32 94 C31.608125 94.433125 31.21625 94.86625 30.8125 95.3125 C27.12302788 98.74752576 21.96439858 100.43264016 17 101 C16.01 100.505 16.01 100.505 15 100 C15 100.66 15 101.32 15 102 C14.01 101.67 13.02 101.34 12 101 C11.67 102.65 11.34 104.3 11 106 C12.32 106 13.64 106 15 106 C14.505 106.94875 14.01 107.8975 13.5 108.875 C11.85575631 111.72278166 11.85575631 111.72278166 12 114 C13.32 114 14.64 114 16 114 C16.33 111.03 16.66 108.06 17 105 C17.66386719 104.86722656 18.32773438 104.73445313 19.01171875 104.59765625 C20.33623047 104.33275391 20.33623047 104.33275391 21.6875 104.0625 C23.45833333 103.70833333 25.22916667 103.35416667 27 103 C27.8765625 102.7628125 28.753125 102.525625 29.65625 102.28125 C30.4296875 102.1884375 31.203125 102.095625 32 102 C34.8125 104.4375 34.8125 104.4375 37 107 C39.97 104.69 42.94 102.38 46 100 C45.54625 98.68 45.0925 97.36 44.625 96 C43.90827925 92.91371271 43.72137594 91.55072516 45.16796875 88.69140625 C46.70086916 86.70701023 48.31439012 84.85461562 50 83 C50.33 82.34 50.66 81.68 51 81 C53.64 81.33 56.28 81.66 59 82 C61.02055843 77.60748167 62.40895235 73.84659077 63 69 C62.02804688 68.67386719 61.05609375 68.34773438 60.0546875 68.01171875 C57 66 57 66 56.1953125 62.20703125 C56.14231441 60.74295894 56.11988202 59.2775223 56.125 57.8125 C56.104375 57.06291016 56.08375 56.31332031 56.0625 55.54101562 C56.01545482 53.69449213 56.00425113 51.84711781 56 50 C58.31 49.34 60.62 48.68 63 48 C62.71517632 46.58194169 62.42181856 45.16559621 62.125 43.75 C61.96257812 42.96109375 61.80015625 42.1721875 61.6328125 41.359375 C61.00849925 39.03168856 60.15161458 37.10968048 59 35 C56.36 35.33 53.72 35.66 51 36 C50.01364163 34.58833114 49.03618745 33.17043816 48.0625 31.75 C47.51722656 30.96109375 46.97195312 30.1721875 46.41015625 29.359375 C45.07559269 27.12647641 44.29511247 25.57169442 44 23 C45.4375 19.75 45.4375 19.75 47 17 C42.05 13.535 42.05 13.535 37 10 C33.535 12.97 33.535 12.97 30 16 C30.99 16.99 30.99 16.99 32 18 C31.67 18.99 31.34 19.98 31 21 C29.0625 21.8125 29.0625 21.8125 27 22 C26.01 21.01 26.01 21.01 25 20 C23.68 20 22.36 20 21 20 C21 18.35 21 16.7 21 15 C22.32 14.34 23.64 13.68 25 13 C22.36 12.67 19.72 12.34 17 12 C16.505 7.545 16.505 7.545 16 3 C11.71 3 7.42 3 3 3 Z M-3 12 C-1.515 12.99 -1.515 12.99 0 14 C0.33 13.34 0.66 12.68 1 12 C-0.32 12 -1.64 12 -3 12 Z M0 14 C1 17 1 17 1 17 Z M26 14 C26.33 14.99 26.66 15.98 27 17 C27.99 16.34 28.98 15.68 30 15 C28.68 14.67 27.36 14.34 26 14 Z M23 16 C22.67 16.99 22.34 17.98 22 19 C22.66 19 23.32 19 24 19 C23.67 18.01 23.34 17.02 23 16 Z M26 18 C27 20 27 20 27 20 Z M-5 26 C-6.98 27.32 -8.96 28.64 -11 30 C-9.02 30.99 -9.02 30.99 -7 32 C-6.67 31.01 -6.34 30.02 -6 29 C-5.34 28.67 -4.68 28.34 -4 28 C-4.33 27.34 -4.66 26.68 -5 26 Z M-2 25 C-1.67 26.98 -1.34 28.96 -1 31 C-1.86625 31.020625 -2.7325 31.04125 -3.625 31.0625 C-8.22758819 32.34099672 -10.43056157 35.05472752 -13 39 C-13 39.66 -13 40.32 -13 41 C-13.66 41 -14.32 41 -15 41 C-17.45417612 46.673142 -19.46246904 51.81839396 -20 58 C-21.65 57.67 -23.3 57.34 -25 57 C-24.96560131 65.73726831 -22.75176351 72.63594859 -18 80 C-17.01 80.66 -16.02 81.32 -15 82 C-14.73445313 81.46890625 -14.46890625 80.9378125 -14.1953125 80.390625 C-12.46354167 76.92708333 -10.73177083 73.46354167 -9 70 C-9.66 69.67 -10.32 69.34 -11 69 C-11 69.66 -11 70.32 -11 71 C-14.96 67.535 -14.96 67.535 -19 64 C-17.68 64.33 -16.36 64.66 -15 65 C-15 64.34 -15 63.68 -15 63 C-13.68 63.66 -12.36 64.32 -11 65 C-12.81309003 61.22272911 -14.9073259 57.62730178 -17 54 C-15.02 55.65 -13.04 57.3 -11 59 C-11 58.34 -11 57.68 -11 57 C-10.34 57 -9.68 57 -9 57 C-10.56641751 52.69235185 -12.68336156 48.93828536 -15 45 C-12.53039576 47.29320393 -10.75644771 49.38377937 -8.9375 52.25 C-8.298125 53.1575 -7.65875 54.065 -7 55 C-6.01 55 -5.02 55 -4 55 C-2.68 57.97 -1.36 60.94 0 64 C1.98 63.505 1.98 63.505 4 63 C5.85238076 62.90859079 7.70787209 62.86995339 9.5625 62.875 C10.51253906 62.87242188 11.46257812 62.86984375 12.44140625 62.8671875 C15 63 15 63 18 64 C19.32 61.03 20.64 58.06 22 55 C22.99 55 23.98 55 25 55 C26.69866502 53.0767867 26.69866502 53.0767867 28.1875 50.625 C28.71730469 49.81289062 29.24710938 49.00078125 29.79296875 48.1640625 C31.16237152 46.12187409 31.16237152 46.12187409 31 44 C31.66 44 32.32 44 33 44 C32.6390625 44.62648438 32.278125 45.25296875 31.90625 45.8984375 C31.4421875 46.71570313 30.978125 47.53296875 30.5 48.375 C30.0359375 49.18710938 29.571875 49.99921875 29.09375 50.8359375 C27.84964141 52.89336874 27.84964141 52.89336874 28 55 C28.66 55 29.32 55 30 55 C30.495 56.485 30.495 56.485 31 58 C32.32 56.68 33.64 55.36 35 54 C33.35 56.31 31.7 58.62 30 61 C30.33 61.66 30.66 62.32 31 63 C31.33 62.67 31.66 62.34 32 62 C32.66 62.66 33.32 63.32 34 64 C35.32 63.34 36.64 62.68 38 62 C35.36 64.31 32.72 66.62 30 69 C29.67 68.34 29.34 67.68 29 67 C29 72.23771837 31.07787141 75.98612302 34.63671875 79.71484375 C35.08660156 80.13894531 35.53648437 80.56304687 36 81 C41.10072472 73.78237372 44.71353124 66.03806244 44 57 C43.505 57.99 43.505 57.99 43 59 C41.515 58.505 41.515 58.505 40 58 C38 48 38 48 37.640625 45.359375 C36.87331935 42.53344445 35.98210678 41.70144826 33.6875 39.9375 C33.0584375 39.43476562 32.429375 38.93203125 31.78125 38.4140625 C30.89953125 37.71410156 30.89953125 37.71410156 30 37 C27.57190375 34.70315219 25.86340201 32.79510301 24 30 C21.38174011 29.4188234 18.9635824 29.02729987 16.3125 28.75 C15.61705078 28.65976563 14.92160156 28.56953125 14.20507812 28.4765625 C9.58083778 27.94116959 5.57769667 28.16005566 1 29 C0.67 27.68 0.34 26.36 0 25 C-0.66 25 -1.32 25 -2 25 Z M-13 31 C-14.63676257 32.9600281 -14.63676257 32.9600281 -16 35 C-15.01 35.495 -15.01 35.495 -14 36 C-14 35.34 -14 34.68 -14 34 C-13.34 34 -12.68 34 -12 34 C-11.67 33.01 -11.34 32.02 -11 31 C-11.66 31 -12.32 31 -13 31 Z M32 32 C32 32.66 32 33.32 32 34 C32.66 33.67 33.32 33.34 34 33 C33.34 32.67 32.68 32.34 32 32 Z M-19 38 C-19.66 39.32 -20.32 40.64 -21 42 C-20.01 41.67 -19.02 41.34 -18 41 C-18.33 40.01 -18.66 39.02 -19 38 Z M37 38 C38 40 38 40 38 40 Z M-23 45 C-22 47 -22 47 -22 47 Z M41 46 C42 48 42 48 42 48 Z M-24 49 C-24.33 51.31 -24.66 53.62 -25 56 C-24.34 56 -23.68 56 -23 56 C-23 53.69 -23 51.38 -23 49 C-23.33 49 -23.66 49 -24 49 Z M42 50 C43 52 43 52 43 52 Z M27 55 C28 57 28 57 28 57 Z M-9 57 C-8 59 -8 59 -8 59 Z M26 57 C27 59 27 59 27 59 Z M-8 59 C-7 61 -7 61 -7 61 Z M22 59 C19.7226499 61.81509993 19.7226499 61.81509993 20 65 C21.32 64.67 22.64 64.34 24 64 C24.33 62.68 24.66 61.36 25 60 C24.01 59.67 23.02 59.34 22 59 Z M-5 60 C-5.66 60.66 -6.32 61.32 -7 62 C-6.34 63.32 -5.68 64.64 -5 66 C-3.68 65.34 -2.36 64.68 -1 64 C-1.66 62.68 -2.32 61.36 -3 60 C-3.66 60 -4.32 60 -5 60 Z M26 62 C25.34 63.65 24.68 65.3 24 67 C25.32 67 26.64 67 28 67 C28.33 66.01 28.66 65.02 29 64 C28.34 64 27.68 64 27 64 C26.67 63.34 26.34 62.68 26 62 Z M7 64 C7 66.31 7 68.62 7 71 C8.65 71 10.3 71 12 71 C12.33 68.69 12.66 66.38 13 64 C11.02 64 9.04 64 7 64 Z M-8 64 C-8.99 64.66 -9.98 65.32 -11 66 C-10.01 67.485 -10.01 67.485 -9 69 C-7.68 68.34 -6.36 67.68 -5 67 C-5.99 66.01 -6.98 65.02 -8 64 Z M15 65 C15 67.31 15 69.62 15 72 C16.32 72.33 17.64 72.66 19 73 C19.66 71.02 20.32 69.04 21 67 C19.02 66.34 17.04 65.68 15 65 Z M-1 67 C0.28288757 69.55503957 0.28288757 69.55503957 2 72 C2.99 72 3.98 72 5 72 C4.67 69.69 4.34 67.38 4 65 C2.15953612 65 0.60370406 66.17228177 -1 67 Z M-6 70 C-5.34 71.32 -4.68 72.64 -4 74 C-3.01 74 -2.02 74 -1 74 C-1.33 72.35 -1.66 70.7 -2 69 C-4.0745356 68.8509288 -4.0745356 68.8509288 -6 70 Z M23 69 C22.34 70.65 21.68 72.3 21 74 C22.98 74.99 22.98 74.99 25 76 C25.66 74.35 26.32 72.7 27 71 C25.68 70.34 24.36 69.68 23 69 Z M-7 81 C-8.31560471 83.31974116 -9.13573117 85.45803284 -10 88 C-8.730447 88.64834654 -7.45930294 89.29357815 -6.1875 89.9375 C-5.47980469 90.29714844 -4.77210937 90.65679687 -4.04296875 91.02734375 C3.3437914 94.54417602 13.82019538 94.30933639 21.56640625 91.8828125 C24.132921 90.69826723 26.58224034 89.46214407 29 88 C28.22080757 83.25254919 26.73557327 80.09882783 23 77 C12.28959017 71.19852801 1.37370828 71.41459233 -7 81 Z M-9 74 C-9.33 74.99 -9.66 75.98 -10 77 C-8.68 77.33 -7.36 77.66 -6 78 C-6 77.01 -6 76.02 -6 75 C-6.99 74.67 -7.98 74.34 -9 74 Z M28 75 C27.01 76.485 27.01 76.485 26 78 C27.32 78 28.64 78 30 78 C30 77.01 30 76.02 30 75 C29.34 75 28.68 75 28 75 Z M-12 79 C-12 79.99 -12 80.98 -12 82 C-11.01 82 -10.02 82 -9 82 C-9.33 81.01 -9.66 80.02 -10 79 C-10.66 79 -11.32 79 -12 79 Z M30 80 C30.33 80.99 30.66 81.98 31 83 C31.66 82.01 32.32 81.02 33 80 C32.01 80 31.02 80 30 80 Z M-13 84 C-12.34 84.66 -11.68 85.32 -11 86 C-11 85.34 -11 84.68 -11 84 C-11.66 84 -12.32 84 -13 84 Z M12 95 C12.99 95.495 12.99 95.495 14 96 C14.33 96.66 14.66 97.32 15 98 C15 97.34 15 96.68 15 96 C16.98 95.67 18.96 95.34 21 95 C17.67465243 93.89155081 15.37817425 94.15545644 12 95 Z M21 96 C21.99 97.485 21.99 97.485 23 99 C23 98.01 23 97.02 23 96 C22.34 96 21.68 96 21 96 Z M25 96 C26 98 26 98 26 98 Z M7 98 C8 100 8 100 8 100 Z M-12 105 C-14.49210521 107.30068019 -14.49210521 107.30068019 -16 110 C-20.75 108.125 -20.75 108.125 -23 107 C-23.185625 108.258125 -23.37125 109.51625 -23.5625 110.8125 C-23.71912109 111.87404297 -23.71912109 111.87404297 -23.87890625 112.95703125 C-24.13904799 115.2025342 -24.13904799 115.2025342 -23 118 C-1.22 118 20.56 118 43 118 C43.73960026 110.50847518 43.73960026 110.50847518 41 107 C40.38125 107.495 39.7625 107.99 39.125 108.5 C37 110 37 110 35 110 C33.61767557 108.37373596 32.28062485 106.7074998 31 105 C26.80530429 105.59924224 22.99000166 106.57499941 19 108 C19 110.97 19 113.94 19 117 C12.73 117 6.46 117 0 117 C0 114.36 0 111.72 0 109 C-3.4092404 105.79738023 -7.38609911 105 -12 105 Z M45 109 C46.29009643 109.50403768 47.58213789 110.00309926 48.875 110.5 C49.95394531 110.91765625 49.95394531 110.91765625 51.0546875 111.34375 C52.97367461 112.10655018 52.97367461 112.10655018 55 112 C55.33 113.65 55.66 115.3 56 117 C59.96 117 63.92 117 68 117 C66.68 115.68 65.36 114.36 64 113 C63.34 113 62.68 113 62 113 C63.65 111.02 65.3 109.04 67 107 C63.70840684 106.94209647 60.41694397 106.90643739 57.125 106.875 C56.18785156 106.85824219 55.25070313 106.84148437 54.28515625 106.82421875 C53.38925781 106.81777344 52.49335938 106.81132812 51.5703125 106.8046875 C50.74289551 106.79421387 49.91547852 106.78374023 49.06298828 106.77294922 C46.77601843 106.80697743 46.77601843 106.80697743 45 109 Z M-49 108 C-47.68 109.98 -46.36 111.96 -45 114 C-45.639375 114.28875 -46.27875 114.5775 -46.9375 114.875 C-49.15206079 115.82823451 -49.15206079 115.82823451 -50 118 C-45.38 118 -40.76 118 -36 118 C-35.67 116.35 -35.34 114.7 -35 113 C-32.03 112.01 -29.06 111.02 -26 110 C-26.33 109.34 -26.66 108.68 -27 108 C-34.26 108 -41.52 108 -49 108 Z M10 108 C10.33 108.99 10.66 109.98 11 111 C11.33 110.01 11.66 109.02 12 108 C11.34 108 10.68 108 10 108 Z M-31 115 C-27 116 -27 116 -27 116 Z M45.6796875 120.21875 C44.42285156 120.26386719 43.16601562 120.30898437 41.87109375 120.35546875 C40.55238281 120.40316406 39.23367187 120.45085937 37.875 120.5 C36.53515742 120.54820974 35.19531369 120.59638723 33.85546875 120.64453125 C30.57030091 120.76270275 27.2851454 120.88120651 24 121 C24.495 121.99 24.495 121.99 25 123 C28.04581269 123.46954261 28.04581269 123.46954261 31.5625 123.625 C32.76003906 123.69976562 33.95757812 123.77453125 35.19140625 123.8515625 C36.11824219 123.90054688 37.04507813 123.94953125 38 124 C38 125.65 38 127.3 38 129 C34.37 128.67 30.74 128.34 27 128 C26.505 126.515 26.505 126.515 26 125 C26 126.32 26 127.64 26 129 C23.6875 128.8125 23.6875 128.8125 21 128 C19.1875 125.4375 19.1875 125.4375 18 123 C19.32 122.67 20.64 122.34 22 122 C20.84331499 120.61578935 20.84331499 120.61578935 17.67358398 120.88647461 C16.19774444 120.88663371 14.72189931 120.89232686 13.24609375 120.90234375 C12.47064713 120.9037587 11.6952005 120.90517365 10.89625549 120.90663147 C8.40996506 120.91224655 5.9237634 120.92480154 3.4375 120.9375 C1.75586067 120.94251306 0.07421994 120.9470763 -1.60742188 120.95117188 C-5.73831566 120.96222087 -9.86914276 120.97949555 -14 121 C-12.8574653 122.60185129 -12.8574653 122.60185129 -11 124 C-8.2905528 124.41410433 -8.2905528 124.41410433 -5.23828125 124.29296875 C-4.12001953 124.28330078 -3.00175781 124.27363281 -1.84960938 124.26367188 C-0.68236328 124.23853516 0.48488281 124.21339844 1.6875 124.1875 C3.45577148 124.16719727 3.45577148 124.16719727 5.25976562 124.14648438 C8.17363411 124.11109326 11.08658945 124.06171809 14 124 C14 125.65 14 127.3 14 129 C13.34 129 12.68 129 12 129 C11.505 128.01 11.505 128.01 11 127 C10.67 127.33 10.34 127.66 10 128 C9.34 127.01 8.68 126.02 8 125 C8 126.32 8 127.64 8 129 C6.68 128.34 5.36 127.68 4 127 C4 127.66 4 128.32 4 129 C2.02 128.34 0.04 127.68 -2 127 C-2 127.66 -2 128.32 -2 129 C-2.66 129 -3.32 129 -4 129 C-4.33 128.34 -4.66 127.68 -5 127 C-5.969375 127.185625 -6.93875 127.37125 -7.9375 127.5625 C-12.38413206 128.21856047 -16.58084983 127.65134866 -21 127 C-21 127.66 -21 128.32 -21 129 C-23.97 128.505 -23.97 128.505 -27 128 C-27 126.68 -27 125.36 -27 124 C-23.7 123.67 -20.4 123.34 -17 123 C-17 122.34 -17 121.68 -17 121 C-22.61 121 -28.22 121 -34 121 C-33.67 123.97 -33.34 126.94 -33 130 C-21.95195823 130.06940502 -10.90396803 130.12276284 0.14424706 130.15543652 C5.27397721 130.17111552 10.4035586 130.19239443 15.53320312 130.22631836 C20.48040867 130.25883229 25.42747082 130.27683616 30.37477493 130.28463173 C32.26550175 130.2901896 34.15622042 130.30104227 36.04688644 130.31719017 C38.68817061 130.33885879 41.3288566 130.3419714 43.97021484 130.34057617 C44.75783707 130.351362 45.54545929 130.36214783 46.35694885 130.3732605 C48.75291707 130.39495052 48.75291707 130.39495052 52 130 C54.4294516 126.3558226 54.16179575 124.28758728 54 120 C51.22342942 120 48.45449024 120.11875711 45.6796875 120.21875 Z M-12 125 C-12 125.66 -12 126.32 -12 127 C-11.34 126.67 -10.68 126.34 -10 126 C-10.66 125.67 -11.32 125.34 -12 125 Z M34 125 C35 127 35 127 35 127 Z " fill="#551215" transform="translate(103,46)"/>
<path d="M0 0 C7.99350611 6.85157666 12.95401762 15.77741627 14.28125 26.2109375 C14.75653332 37.18206075 11.17515839 46.7937657 4 55 C1.44470546 57.48828507 -1.1942495 59.79912558 -4 62 C-2.02 61.505 -2.02 61.505 0 61 C0 61.66 0 62.32 0 63 C0.99 63.33 1.98 63.66 3 64 C-1.74021317 69.77069429 -8.32092595 72.02070673 -15.5625 72.75 C-17.04070097 72.84899672 -18.5197775 72.9381953 -20 73 C-20.495 74.98 -20.495 74.98 -21 77 C-19.68 77 -18.36 77 -17 77 C-17.66 78.98 -18.32 80.96 -19 83 C-19.99 82.01 -19.99 82.01 -21 81 C-20.67 80.34 -20.34 79.68 -20 79 C-20.99 79 -21.98 79 -23 79 C-23 77.02 -23 75.04 -23 73 C-23.99 73.33 -24.98 73.66 -26 74 C-26.99 73.505 -26.99 73.505 -28 73 C-29.41298094 72.8219644 -30.83076636 72.68076947 -32.25 72.5625 C-38.25593581 71.93688169 -42.91292804 70.2916348 -48 67 C-47.01 65.35 -46.02 63.7 -45 62 C-44.04738281 62.3609375 -43.09476563 62.721875 -42.11328125 63.09375 C-40.84651116 63.56292411 -39.5795752 64.03165052 -38.3125 64.5 C-37.68666016 64.73847656 -37.06082031 64.97695312 -36.41601562 65.22265625 C-32.81807701 66.5412725 -29.83479747 67.29329235 -26 67 C-26.845625 66.78085938 -27.69125 66.56171875 -28.5625 66.3359375 C-39.57429081 63.25764143 -47.40526383 58.50713235 -54 49 C-58.8098158 39.3220676 -60.72695209 29.5568275 -57.875 18.9375 C-54.24256514 8.34289832 -48.52430215 1.01296115 -38.59765625 -4.28125 C-25.26150807 -10.49443052 -11.79436159 -8.85239724 0 0 Z M-37 -3 C-38.98 -1.68 -40.96 -0.36 -43 1 C-41.02 1.99 -41.02 1.99 -39 3 C-38.67 2.01 -38.34 1.02 -38 0 C-37.34 -0.33 -36.68 -0.66 -36 -1 C-36.33 -1.66 -36.66 -2.32 -37 -3 Z M-34 -4 C-33.67 -2.02 -33.34 -0.04 -33 2 C-33.86625 2.020625 -34.7325 2.04125 -35.625 2.0625 C-40.22758819 3.34099672 -42.43056157 6.05472752 -45 10 C-45 10.66 -45 11.32 -45 12 C-45.66 12 -46.32 12 -47 12 C-49.45417612 17.673142 -51.46246904 22.81839396 -52 29 C-53.65 28.67 -55.3 28.34 -57 28 C-56.96560131 36.73726831 -54.75176351 43.63594859 -50 51 C-49.01 51.66 -48.02 52.32 -47 53 C-46.73445313 52.46890625 -46.46890625 51.9378125 -46.1953125 51.390625 C-44.46354167 47.92708333 -42.73177083 44.46354167 -41 41 C-41.66 40.67 -42.32 40.34 -43 40 C-43 40.66 -43 41.32 -43 42 C-46.96 38.535 -46.96 38.535 -51 35 C-49.68 35.33 -48.36 35.66 -47 36 C-47 35.34 -47 34.68 -47 34 C-45.68 34.66 -44.36 35.32 -43 36 C-44.81309003 32.22272911 -46.9073259 28.62730178 -49 25 C-47.02 26.65 -45.04 28.3 -43 30 C-43 29.34 -43 28.68 -43 28 C-42.34 28 -41.68 28 -41 28 C-42.56641751 23.69235185 -44.68336156 19.93828536 -47 16 C-44.53039576 18.29320393 -42.75644771 20.38377937 -40.9375 23.25 C-40.298125 24.1575 -39.65875 25.065 -39 26 C-38.01 26 -37.02 26 -36 26 C-34.68 28.97 -33.36 31.94 -32 35 C-30.02 34.505 -30.02 34.505 -28 34 C-26.14761924 33.90859079 -24.29212791 33.86995339 -22.4375 33.875 C-21.48746094 33.87242188 -20.53742188 33.86984375 -19.55859375 33.8671875 C-17 34 -17 34 -14 35 C-12.68 32.03 -11.36 29.06 -10 26 C-9.01 26 -8.02 26 -7 26 C-5.30133498 24.0767867 -5.30133498 24.0767867 -3.8125 21.625 C-3.28269531 20.81289062 -2.75289062 20.00078125 -2.20703125 19.1640625 C-0.83762848 17.12187409 -0.83762848 17.12187409 -1 15 C-0.34 15 0.32 15 1 15 C0.6390625 15.62648438 0.278125 16.25296875 -0.09375 16.8984375 C-0.5578125 17.71570313 -1.021875 18.53296875 -1.5 19.375 C-1.9640625 20.18710938 -2.428125 20.99921875 -2.90625 21.8359375 C-4.15035859 23.89336874 -4.15035859 23.89336874 -4 26 C-3.34 26 -2.68 26 -2 26 C-1.505 27.485 -1.505 27.485 -1 29 C0.32 27.68 1.64 26.36 3 25 C1.35 27.31 -0.3 29.62 -2 32 C-1.67 32.66 -1.34 33.32 -1 34 C-0.67 33.67 -0.34 33.34 0 33 C0.66 33.66 1.32 34.32 2 35 C3.32 34.34 4.64 33.68 6 33 C3.36 35.31 0.72 37.62 -2 40 C-2.33 39.34 -2.66 38.68 -3 38 C-3 43.23771837 -0.92212859 46.98612302 2.63671875 50.71484375 C3.08660156 51.13894531 3.53648437 51.56304687 4 52 C9.10072472 44.78237372 12.71353124 37.03806244 12 28 C11.505 28.99 11.505 28.99 11 30 C9.515 29.505 9.515 29.505 8 29 C6 19 6 19 5.640625 16.359375 C4.87331935 13.53344445 3.98210678 12.70144826 1.6875 10.9375 C1.0584375 10.43476562 0.429375 9.93203125 -0.21875 9.4140625 C-1.10046875 8.71410156 -1.10046875 8.71410156 -2 8 C-4.42809625 5.70315219 -6.13659799 3.79510301 -8 1 C-10.61825989 0.4188234 -13.0364176 0.02729987 -15.6875 -0.25 C-16.38294922 -0.34023437 -17.07839844 -0.43046875 -17.79492188 -0.5234375 C-22.41916222 -1.05883041 -26.42230333 -0.83994434 -31 0 C-31.33 -1.32 -31.66 -2.64 -32 -4 C-32.66 -4 -33.32 -4 -34 -4 Z M-45 2 C-46.63676257 3.9600281 -46.63676257 3.9600281 -48 6 C-47.01 6.495 -47.01 6.495 -46 7 C-46 6.34 -46 5.68 -46 5 C-45.34 5 -44.68 5 -44 5 C-43.67 4.01 -43.34 3.02 -43 2 C-43.66 2 -44.32 2 -45 2 Z M0 3 C0 3.66 0 4.32 0 5 C0.66 4.67 1.32 4.34 2 4 C1.34 3.67 0.68 3.34 0 3 Z M-51 9 C-51.66 10.32 -52.32 11.64 -53 13 C-52.01 12.67 -51.02 12.34 -50 12 C-50.33 11.01 -50.66 10.02 -51 9 Z M5 9 C6 11 6 11 6 11 Z M-55 16 C-54 18 -54 18 -54 18 Z M9 17 C10 19 10 19 10 19 Z M-56 20 C-56.33 22.31 -56.66 24.62 -57 27 C-56.34 27 -55.68 27 -55 27 C-55 24.69 -55 22.38 -55 20 C-55.33 20 -55.66 20 -56 20 Z M10 21 C11 23 11 23 11 23 Z M-5 26 C-4 28 -4 28 -4 28 Z M-41 28 C-40 30 -40 30 -40 30 Z M-6 28 C-5 30 -5 30 -5 30 Z M-40 30 C-39 32 -39 32 -39 32 Z M-10 30 C-12.2773501 32.81509993 -12.2773501 32.81509993 -12 36 C-10.68 35.67 -9.36 35.34 -8 35 C-7.67 33.68 -7.34 32.36 -7 31 C-7.99 30.67 -8.98 30.34 -10 30 Z M-37 31 C-37.66 31.66 -38.32 32.32 -39 33 C-38.34 34.32 -37.68 35.64 -37 37 C-35.68 36.34 -34.36 35.68 -33 35 C-33.66 33.68 -34.32 32.36 -35 31 C-35.66 31 -36.32 31 -37 31 Z M-6 33 C-6.66 34.65 -7.32 36.3 -8 38 C-6.68 38 -5.36 38 -4 38 C-3.67 37.01 -3.34 36.02 -3 35 C-3.66 35 -4.32 35 -5 35 C-5.33 34.34 -5.66 33.68 -6 33 Z M-25 35 C-25 37.31 -25 39.62 -25 42 C-23.35 42 -21.7 42 -20 42 C-19.67 39.69 -19.34 37.38 -19 35 C-20.98 35 -22.96 35 -25 35 Z M-40 35 C-40.99 35.66 -41.98 36.32 -43 37 C-42.01 38.485 -42.01 38.485 -41 40 C-39.68 39.34 -38.36 38.68 -37 38 C-37.99 37.01 -38.98 36.02 -40 35 Z M-17 36 C-17 38.31 -17 40.62 -17 43 C-15.68 43.33 -14.36 43.66 -13 44 C-12.34 42.02 -11.68 40.04 -11 38 C-12.98 37.34 -14.96 36.68 -17 36 Z M-33 38 C-31.71711243 40.55503957 -31.71711243 40.55503957 -30 43 C-29.01 43 -28.02 43 -27 43 C-27.33 40.69 -27.66 38.38 -28 36 C-29.84046388 36 -31.39629594 37.17228177 -33 38 Z M-38 41 C-37.34 42.32 -36.68 43.64 -36 45 C-35.01 45 -34.02 45 -33 45 C-33.33 43.35 -33.66 41.7 -34 40 C-36.0745356 39.8509288 -36.0745356 39.8509288 -38 41 Z M-9 40 C-9.66 41.65 -10.32 43.3 -11 45 C-9.02 45.99 -9.02 45.99 -7 47 C-6.34 45.35 -5.68 43.7 -5 42 C-6.32 41.34 -7.64 40.68 -9 40 Z M-39 52 C-40.31560471 54.31974116 -41.13573117 56.45803284 -42 59 C-40.730447 59.64834654 -39.45930294 60.29357815 -38.1875 60.9375 C-37.47980469 61.29714844 -36.77210937 61.65679687 -36.04296875 62.02734375 C-28.6562086 65.54417602 -18.17980462 65.30933639 -10.43359375 62.8828125 C-7.867079 61.69826723 -5.41775966 60.46214407 -3 59 C-3.77919243 54.25254919 -5.26442673 51.09882783 -9 48 C-19.71040983 42.19852801 -30.62629172 42.41459233 -39 52 Z M-41 45 C-41.33 45.99 -41.66 46.98 -42 48 C-40.68 48.33 -39.36 48.66 -38 49 C-38 48.01 -38 47.02 -38 46 C-38.99 45.67 -39.98 45.34 -41 45 Z M-4 46 C-4.99 47.485 -4.99 47.485 -6 49 C-4.68 49 -3.36 49 -2 49 C-2 48.01 -2 47.02 -2 46 C-2.66 46 -3.32 46 -4 46 Z M-44 50 C-44 50.99 -44 51.98 -44 53 C-43.01 53 -42.02 53 -41 53 C-41.33 52.01 -41.66 51.02 -42 50 C-42.66 50 -43.32 50 -44 50 Z M-2 51 C-1.67 51.99 -1.34 52.98 -1 54 C-0.34 53.01 0.32 52.02 1 51 C0.01 51 -0.98 51 -2 51 Z M-45 55 C-44.34 55.66 -43.68 56.32 -43 57 C-43 56.34 -43 55.68 -43 55 C-43.66 55 -44.32 55 -45 55 Z M-20 66 C-19.01 66.495 -19.01 66.495 -18 67 C-17.67 67.66 -17.34 68.32 -17 69 C-17 68.34 -17 67.68 -17 67 C-15.02 66.67 -13.04 66.34 -11 66 C-14.32534757 64.89155081 -16.62182575 65.15545644 -20 66 Z M-11 67 C-10.01 68.485 -10.01 68.485 -9 70 C-9 69.01 -9 68.02 -9 67 C-9.66 67 -10.32 67 -11 67 Z M-7 67 C-6 69 -6 69 -6 69 Z M-25 69 C-24 71 -24 71 -24 71 Z " fill="#591D21" transform="translate(135,75)"/>
<path d="M0 0 C4.19915307 -0.09907258 8.39768252 -0.17156173 12.59765625 -0.21972656 C14.02551121 -0.23980982 15.45328425 -0.26708252 16.88085938 -0.30175781 C18.93640368 -0.35042669 20.99085855 -0.37299967 23.046875 -0.390625 C24.28276367 -0.41157227 25.51865234 -0.43251953 26.79199219 -0.45410156 C30 0 30 0 32.49707031 1.46191406 C34 4 34 4 33 13 C54.78 13 76.56 13 99 13 C99 11.02 99 9.04 99 7 C100.45947705 7.06006078 101.91779272 7.1488689 103.375 7.25 C104.18710938 7.29640625 104.99921875 7.3428125 105.8359375 7.390625 C108 8 108 8 109.2890625 10.046875 C109.52367187 10.69140625 109.75828125 11.3359375 110 12 C109.01 12.33 108.02 12.66 107 13 C107.495 14.485 107.495 14.485 108 16 C94.635 16.495 94.635 16.495 81 17 C85.29 17.33 89.58 17.66 94 18 C95.24546405 20.49092811 94.7767578 21.41080733 94 24 C90.12286142 24.07456036 86.74071646 24.00711597 83 23 C82.505 23.495 82.505 23.495 82 24 C79.625 24.3125 79.625 24.3125 77 24 C75.02389614 21.95575462 74 20.8823175 74 18 C74.99 17.67 75.98 17.34 77 17 C65.78 17 54.56 17 43 17 C46.1184325 18.0394775 48.27475586 18.11494838 51.54296875 18.09765625 C53.15268555 18.09282227 53.15268555 18.09282227 54.79492188 18.08789062 C55.91447266 18.07951172 57.03402344 18.07113281 58.1875 18.0625 C59.31865234 18.05798828 60.44980469 18.05347656 61.61523438 18.04882812 C64.41020927 18.03703498 67.2050782 18.0205765 70 18 C71.24546405 20.49092811 70.7767578 21.41080733 70 24 C69.278125 23.814375 68.55625 23.62875 67.8125 23.4375 C65.04530635 22.84165206 65.04530635 22.84165206 62.5 23.5 C59.65193314 24.06961337 57.80652255 23.64765905 55 23 C51.10718055 22.88630571 51.10718055 22.88630571 47.75 23.5625 C44.71218641 23.91691159 42.74826764 23.93189133 39.8125 23.5 C36.45947137 23.06025854 35.07712652 23.120821 32 24 C29.75 23.5625 29.75 23.5625 28 23 C28.33 21.35 28.66 19.7 29 18 C32.3 18 35.6 18 39 18 C39 17.34 39 16.68 39 16 C33.39 16 27.78 16 22 16 C22 18.64 22 21.28 22 24 C21.01 24 20.02 24 19 24 C19 21.36 19 18.72 19 16 C12.4 16 5.8 16 -1 16 C0.95216435 12.09567131 2.87386607 9.96160056 6 7 C5.01 6.21625 4.02 5.4325 3 4.625 C2.01 3.75875 1.02 2.8925 0 2 C0 1.34 0 0.68 0 0 Z M7 3 C8.32 4.98 9.64 6.96 11 9 C10.360625 9.28875 9.72125 9.5775 9.0625 9.875 C6.84793921 10.82823451 6.84793921 10.82823451 6 13 C10.62 13 15.24 13 20 13 C20.33 11.35 20.66 9.7 21 8 C23.97 7.01 26.94 6.02 30 5 C29.67 4.34 29.34 3.68 29 3 C21.74 3 14.48 3 7 3 Z M25 10 C29 11 29 11 29 11 Z M44 20 C44 20.66 44 21.32 44 22 C44.66 21.67 45.32 21.34 46 21 C45.34 20.67 44.68 20.34 44 20 Z M90 20 C91 22 91 22 91 22 Z " fill="#591112" transform="translate(47,151)"/>
<path d="M0 0 C7.35140129 6.3012011 12.26331874 14.4705182 14 24 C14.20386399 27.0534296 14.14831785 29.93476444 14 33 C13.5875 32.525625 13.175 32.05125 12.75 31.5625 C10.817815 29.83733482 9.51807725 29.43415125 7 29 C6.81824219 28.00419922 6.81824219 28.00419922 6.6328125 26.98828125 C5.41893715 20.59209192 4.35420073 15.05087285 0 10 C-0.99 9.34 -1.98 8.68 -3 8 C-3.72445312 6.99839844 -4.44890625 5.99679688 -5.1953125 4.96484375 C-7.65368387 1.94106535 -9.84456597 1.15366411 -13.78515625 0.71289062 C-14.47480469 0.66326172 -15.16445312 0.61363281 -15.875 0.5625 C-16.55691406 0.48580078 -17.23882812 0.40910156 -17.94140625 0.33007812 C-22.47729065 -0.11487054 -26.51819634 0.19842415 -31 1 C-31.33 -0.65 -31.66 -2.3 -32 -4 C-33.29633621 -2.93354885 -33.29633621 -2.93354885 -33.0625 -0.4375 C-33.041875 0.366875 -33.02125 1.17125 -33 2 C-34.423125 2.12375 -34.423125 2.12375 -35.875 2.25 C-39.04751907 2.63036393 -39.04751907 2.63036393 -40.125 4.75 C-40.558125 5.86375 -40.558125 5.86375 -41 7 C-43 9.75 -43 9.75 -45 12 C-45.66 12 -46.32 12 -47 12 C-47.18369141 12.78117187 -47.18369141 12.78117187 -47.37109375 13.578125 C-48.17316317 16.66683954 -49.1176293 19.70202998 -50.0625 22.75 C-50.42472656 23.92046875 -50.78695312 25.0909375 -51.16015625 26.296875 C-51.43730469 27.18890625 -51.71445313 28.0809375 -52 29 C-53.32 29 -54.64 29 -56 29 C-56.33 31.97 -56.66 34.94 -57 38 C-60.34192312 32.98711532 -59.57412596 27.20352637 -58.53515625 21.40625 C-55.70267133 10.81376203 -50.35782465 2.79660967 -41 -3 C-27.06999109 -10.42933808 -12.75963171 -9.57689212 0 0 Z M-37 -3 C-38.98 -1.68 -40.96 -0.36 -43 1 C-41.02 1.99 -41.02 1.99 -39 3 C-38.67 2.01 -38.34 1.02 -38 0 C-37.34 -0.33 -36.68 -0.66 -36 -1 C-36.33 -1.66 -36.66 -2.32 -37 -3 Z M-45 2 C-46.63676257 3.9600281 -46.63676257 3.9600281 -48 6 C-47.01 6.495 -47.01 6.495 -46 7 C-46 6.34 -46 5.68 -46 5 C-45.34 5 -44.68 5 -44 5 C-43.67 4.01 -43.34 3.02 -43 2 C-43.66 2 -44.32 2 -45 2 Z M0 3 C0 3.66 0 4.32 0 5 C0.66 4.67 1.32 4.34 2 4 C1.34 3.67 0.68 3.34 0 3 Z M-51 9 C-51.66 10.32 -52.32 11.64 -53 13 C-52.01 12.67 -51.02 12.34 -50 12 C-50.33 11.01 -50.66 10.02 -51 9 Z M5 9 C6 11 6 11 6 11 Z M-55 16 C-54 18 -54 18 -54 18 Z M9 17 C10 19 10 19 10 19 Z M-56 20 C-56.33 22.31 -56.66 24.62 -57 27 C-56.34 27 -55.68 27 -55 27 C-55 24.69 -55 22.38 -55 20 C-55.33 20 -55.66 20 -56 20 Z M10 21 C11 23 11 23 11 23 Z " fill="#8E5254" transform="translate(135,75)"/>
<path d="M0 0 C6.27 0 12.54 0 19 0 C19 2.97 19 5.94 19 9 C24.94 9.99 24.94 9.99 31 11 C32.32 9.35 33.64 7.7 35 6 C39.10110762 7.40398279 41.98089159 9.37087038 45.3125 12.125 C46.19550781 12.84945312 47.07851562 13.57390625 47.98828125 14.3203125 C48.65214844 14.87460937 49.31601563 15.42890625 50 16 C49.42551795 18.3229057 48.82553865 20.63074489 48.1875 22.9375 C47.67121102 26.14157862 47.67121102 26.14157862 49.9375 28.75 C50.618125 29.4925 51.29875 30.235 52 31 C52 31.66 52 32.32 52 33 C56.95 32.505 56.95 32.505 62 32 C61.67 32.99 61.34 33.98 61 35 C60.67 34.67 60.34 34.34 60 34 C59.01 34.99 59.01 34.99 58 36 C55.67724823 36.40047444 53.34260643 36.7397104 51 37 C49.84669053 35.42210402 48.70262073 33.8374518 47.5625 32.25 C46.60537109 30.92742187 46.60537109 30.92742187 45.62890625 29.578125 C44.15626496 27.24732584 43.27668517 25.72073751 43 23 C44.4375 20.25 44.4375 20.25 46 18 C43.03 15.69 40.06 13.38 37 11 C35.02 12.65 33.04 14.3 31 16 C31.66 16.99 32.32 17.98 33 19 C32.34 19 31.68 19 31 19 C31 19.66 31 20.32 31 21 C29.35 21.66 27.7 22.32 26 23 C25.505 22.01 25.505 22.01 25 21 C22.47266765 20.34444881 22.47266765 20.34444881 20 20 C19.875 15.25 19.875 15.25 21 13 C20.360625 12.87625 19.72125 12.7525 19.0625 12.625 C18.381875 12.41875 17.70125 12.2125 17 12 C15.5216774 9.04335481 15.93967217 6.25770263 16 3 C11.71 3 7.42 3 3 3 C3.020625 4.11375 3.04125 5.2275 3.0625 6.375 C3 10 3 10 2 12 C3.051875 11.835 4.10375 11.67 5.1875 11.5 C8.20468796 11.10430322 10.97093972 10.90821029 14 11 C14.59732819 13.76264289 15 16.16032769 15 19 C13.35 19 11.7 19 10 19 C9.34 17.68 8.68 16.36 8 15 C8 16.32 8 17.64 8 19 C7.01 18.67 6.02 18.34 5 18 C4.67 17.34 4.34 16.68 4 16 C3.34 17.32 2.68 18.64 2 20 C1.360625 19.835 0.72125 19.67 0.0625 19.5 C-1.80826821 18.96073333 -1.80826821 18.96073333 -3 19 C-3 19.66 -3 20.32 -3 21 C-3.99 21 -4.98 21 -6 21 C-6.33 20.34 -6.66 19.68 -7 19 C-7 20.32 -7 21.64 -7 23 C-7.66 23 -8.32 23 -9 23 C-9.33 21.68 -9.66 20.36 -10 19 C-10 19.99 -10 20.98 -10 22 C-10 22.66 -10 23.32 -10 24 C-10.99 23.67 -11.98 23.34 -13 23 C-13 22.34 -13 21.68 -13 21 C-13.99 21 -14.98 21 -16 21 C-15.505 19.515 -15.505 19.515 -15 18 C-11.9375 16.8125 -11.9375 16.8125 -9 16 C-9 15.01 -9 14.02 -9 13 C-9.66 12.67 -10.32 12.34 -11 12 C-7.7 10.68 -4.4 9.36 -1 8 C-0.67 5.36 -0.34 2.72 0 0 Z M-3 12 C-1.515 12.99 -1.515 12.99 0 14 C0.33 13.34 0.66 12.68 1 12 C-0.32 12 -1.64 12 -3 12 Z M0 14 C1 17 1 17 1 17 Z M26 14 C26.33 14.99 26.66 15.98 27 17 C27.99 16.34 28.98 15.68 30 15 C28.68 14.67 27.36 14.34 26 14 Z M23 16 C22.67 16.99 22.34 17.98 22 19 C22.66 19 23.32 19 24 19 C23.67 18.01 23.34 17.02 23 16 Z M26 18 C27 20 27 20 27 20 Z " fill="#531014" transform="translate(103,46)"/>
<path d="M0 0 C0.33 0 0.66 0 1 0 C1.74273747 8.7271653 -2.05493432 15.39203894 -7.33984375 22.13671875 C-9.96263069 25.08041139 -12.89767963 27.57688586 -16 30 C-14.68 29.67 -13.36 29.34 -12 29 C-12 29.66 -12 30.32 -12 31 C-11.01 31.33 -10.02 31.66 -9 32 C-13.74021317 37.77069429 -20.32092595 40.02070673 -27.5625 40.75 C-29.04070097 40.84899672 -30.5197775 40.9381953 -32 41 C-32.33 42.32 -32.66 43.64 -33 45 C-31.68 45 -30.36 45 -29 45 C-29.66 46.98 -30.32 48.96 -31 51 C-31.66 50.34 -32.32 49.68 -33 49 C-32.505 48.01 -32.505 48.01 -32 47 C-32.99 47 -33.98 47 -35 47 C-35 45.02 -35 43.04 -35 41 C-35.99 41.33 -36.98 41.66 -38 42 C-38.66 41.67 -39.32 41.34 -40 41 C-41.41298094 40.8219644 -42.83076636 40.68076947 -44.25 40.5625 C-50.25593581 39.93688169 -54.91292804 38.2916348 -60 35 C-59.01 33.35 -58.02 31.7 -57 30 C-56.04738281 30.3609375 -55.09476563 30.721875 -54.11328125 31.09375 C-52.84651116 31.56292411 -51.5795752 32.03165052 -50.3125 32.5 C-49.68666016 32.73847656 -49.06082031 32.97695312 -48.41601562 33.22265625 C-44.81807701 34.5412725 -41.83479747 35.29329235 -38 35 C-38.845625 34.78085938 -39.69125 34.56171875 -40.5625 34.3359375 C-47.83262027 32.30360843 -53.49661181 30.22458218 -59 25 C-59.62648438 24.41347656 -60.25296875 23.82695312 -60.8984375 23.22265625 C-65.60929995 18.36271588 -68.83897387 12.73604347 -70 6 C-69.08984375 3.671875 -69.08984375 3.671875 -68 2 C-67.84144531 2.6290625 -67.68289062 3.258125 -67.51953125 3.90625 C-65.86182998 9.98754083 -63.63605518 14.85491007 -60 20 C-59.01 19.67 -58.02 19.34 -57 19 C-56.67 20.65 -56.34 22.3 -56 24 C-54.68 23.34 -53.36 22.68 -52 22 C-52.33 23.32 -52.66 24.64 -53 26 C-51.906875 26.639375 -50.81375 27.27875 -49.6875 27.9375 C-49.07261719 28.29714844 -48.45773438 28.65679687 -47.82421875 29.02734375 C-41.10579552 32.60954371 -30.19827515 32.23099233 -22.94921875 30.10546875 C-20.59788756 29.05474367 -20.59788756 29.05474367 -18.56640625 27.875 C-17 27 -17 27 -15 27 C-15 26.01 -15 25.02 -15 24 C-14.01 24 -13.02 24 -12 24 C-12 23.34 -12 22.68 -12 22 C-11.34 22 -10.68 22 -10 22 C-10 21.34 -10 20.68 -10 20 C-9.4225 19.484375 -8.845 18.96875 -8.25 18.4375 C-3.58426517 13.38295393 -1.67519025 6.5611618 0 0 Z M-32 34 C-31.01 34.495 -31.01 34.495 -30 35 C-29.67 35.66 -29.34 36.32 -29 37 C-29 36.34 -29 35.68 -29 35 C-27.02 34.67 -25.04 34.34 -23 34 C-26.32534757 32.89155081 -28.62182575 33.15545644 -32 34 Z M-23 35 C-22.01 36.485 -22.01 36.485 -21 38 C-21 37.01 -21 36.02 -21 35 C-21.66 35 -22.32 35 -23 35 Z M-19 35 C-18 37 -18 37 -18 37 Z M-37 37 C-36 39 -36 39 -36 39 Z " fill="#62282A" transform="translate(147,107)"/>
<path d="M0 0 C27.72 0 55.44 0 84 0 C84 0.33 84 0.66 84 1 C70.635 1.495 70.635 1.495 57 2 C61.29 2.33 65.58 2.66 70 3 C71.24546405 5.49092811 70.7767578 6.41080733 70 9 C66.12286142 9.07456036 62.74071646 9.00711597 59 8 C58.67 8.33 58.34 8.66 58 9 C55.625 9.3125 55.625 9.3125 53 9 C51.02389614 6.95575462 50 5.8823175 50 3 C50.99 2.67 51.98 2.34 53 2 C41.78 2 30.56 2 19 2 C22.1184325 3.0394775 24.27475586 3.11494838 27.54296875 3.09765625 C29.15268555 3.09282227 29.15268555 3.09282227 30.79492188 3.08789062 C31.91447266 3.07951172 33.03402344 3.07113281 34.1875 3.0625 C35.31865234 3.05798828 36.44980469 3.05347656 37.61523438 3.04882812 C40.41020927 3.03703498 43.2050782 3.0205765 46 3 C47.24546405 5.49092811 46.7767578 6.41080733 46 9 C45.278125 8.814375 44.55625 8.62875 43.8125 8.4375 C41.04530635 7.84165206 41.04530635 7.84165206 38.5 8.5 C35.65193314 9.06961337 33.80652255 8.64765905 31 8 C27.10718055 7.88630571 27.10718055 7.88630571 23.75 8.5625 C20.71218641 8.91691159 18.74826764 8.93189133 15.8125 8.5 C12.45947137 8.06025854 11.07712652 8.120821 8 9 C5.75 8.5625 5.75 8.5625 4 8 C4.33 6.35 4.66 4.7 5 3 C8.3 3 11.6 3 15 3 C15 2.34 15 1.68 15 1 C10.05 1 5.1 1 0 1 C0 0.67 0 0.34 0 0 Z M20 5 C20 5.66 20 6.32 20 7 C20.66 6.67 21.32 6.34 22 6 C21.34 5.67 20.68 5.34 20 5 Z M66 5 C67 7 67 7 67 7 Z " fill="#663535" transform="translate(71,166)"/>
<path d="M0 0 C4.4062186 1.34634457 6.43077702 3.19374374 9 7 C9 7.66 9 8.32 9 9 C9.495 9.474375 9.99 9.94875 10.5 10.4375 C12 12 12 12 12 15 C12.66 15 13.32 15 14 15 C13.67 15.99 13.34 16.98 13 18 C13.66 18.33 14.32 18.66 15 19 C15.59765625 20.8203125 15.59765625 20.8203125 16.0625 23.125 C16.30806641 24.34123047 16.30806641 24.34123047 16.55859375 25.58203125 C17.38466189 30.10713017 18 34.39484431 18 39 C16.35 39 14.7 39 13 39 C13 39.66 13 40.32 13 41 C14.32 41.33 15.64 41.66 17 42 C17.6875 43.8125 17.6875 43.8125 18 46 C17 47 16 48 15 49 C15.32843384 51.06381575 15.32843384 51.06381575 16 53 C15.67 53.66 15.34 54.32 15 55 C12.69 54.67 10.38 54.34 8 54 C8.52965089 51.08692009 9.20076009 48.33867264 10.0625 45.5 C10.89066765 42.40817411 11.1753448 40.15620642 11 37 C11 34 11 34 11.1875 31.8125 C10.93198172 27.97972577 9.81638222 22.81638222 7 20 C5.19354152 16.91839436 5 15.77969755 5 12 C3.68 11.34 2.36 10.68 1 10 C1 9.01 1 8.02 1 7 C0.01 7 -0.98 7 -2 7 C-1.42415568 4.61435923 -0.77772405 2.33317216 0 0 Z M8 12 C7.67 12.66 7.34 13.32 7 14 C7.66 14 8.32 14 9 14 C8.67 13.34 8.34 12.68 8 12 Z M9 14 C9.33 14.99 9.66 15.98 10 17 C10.66 16.34 11.32 15.68 12 15 C11.01 14.67 10.02 14.34 9 14 Z M14 31 C13.67 31.66 13.34 32.32 13 33 C13.99 32.67 14.98 32.34 16 32 C15.34 31.67 14.68 31.34 14 31 Z M13 44 C13 44.66 13 45.32 13 46 C13.66 46 14.32 46 15 46 C15 45.34 15 44.68 15 44 C14.34 44 13.68 44 13 44 Z " fill="#793234" transform="translate(140,68)"/>
<path d="M0 0 C4.07724024 1.35908008 4.64817495 3.54118142 6.62109375 7.1875 C7.84202312 9.19501797 7.84202312 9.19501797 10.05078125 9.46484375 C10.69402344 9.64144531 11.33726563 9.81804687 12 10 C13.046875 12.06640625 13.046875 12.06640625 13.75 14.5625 C14.11351562 15.80193359 14.11351562 15.80193359 14.484375 17.06640625 C14.65453125 17.70449219 14.8246875 18.34257813 15 19 C16.65 18.34 18.3 17.68 20 17 C22 20 22 20 22 24 C21.34 24 20.68 24 20 24 C19.34 23.01 18.68 22.02 18 21 C17.01 21.66 16.02 22.32 15 23 C17.21934164 26.32901247 18.34683329 26.75023244 22 28 C22 28.33 22 28.66 22 29 C20.453125 29.3403125 20.453125 29.3403125 18.875 29.6875 C14.63196797 30.88624279 12.17473087 32.97644679 9 36 C8.67 36.66 8.34 37.32 8 38 C5.4375 38.625 5.4375 38.625 3 39 C1.8125 36.3125 1.8125 36.3125 1 33 C2.375 30.25 2.375 30.25 4 28 C4 27.34 4 26.68 4 26 C3.11054687 25.61714844 3.11054687 25.61714844 2.203125 25.2265625 C-0.21224538 23.88183502 -1.51211706 22.50785633 -3.25 20.375 C-3.77078125 19.74335937 -4.2915625 19.11171875 -4.828125 18.4609375 C-5.21484375 17.97882813 -5.6015625 17.49671875 -6 17 C-4.88625 17.5259375 -4.88625 17.5259375 -3.75 18.0625 C-0.81935001 19.33918068 -0.81935001 19.33918068 3 18 C1.02 15.36 -0.96 12.72 -3 10 C-2.67 9.34 -2.34 8.68 -2 8 C-0.35 9.65 1.3 11.3 3 13 C3.99 12.67 4.98 12.34 6 12 C5.566875 11.30132812 5.13375 10.60265625 4.6875 9.8828125 C4.130625 8.97273438 3.57375 8.06265625 3 7.125 C2.443125 6.22007813 1.88625 5.31515625 1.3125 4.3828125 C0 2 0 2 0 0 Z M6 12 C7 14 7 14 7 14 Z M7 14 C8 16 8 16 8 16 Z M10 15 C9.34 15.66 8.68 16.32 8 17 C8.66 18.32 9.32 19.64 10 21 C11.32 20.34 12.64 19.68 14 19 C13.34 17.68 12.68 16.36 12 15 C11.34 15 10.68 15 10 15 Z M7 19 C6.01 19.66 5.02 20.32 4 21 C4.99 22.485 4.99 22.485 6 24 C7.32 23.34 8.64 22.68 10 22 C9.01 21.01 8.02 20.02 7 19 Z M9 25 C9.66 26.32 10.32 27.64 11 29 C11.99 29 12.98 29 14 29 C13.67 27.35 13.34 25.7 13 24 C10.9254644 23.8509288 10.9254644 23.8509288 9 25 Z M6 29 C5.67 29.99 5.34 30.98 5 32 C6.32 32.33 7.64 32.66 9 33 C9 32.01 9 31.02 9 30 C8.01 29.67 7.02 29.34 6 29 Z M3 34 C3 34.99 3 35.98 3 37 C3.99 37 4.98 37 6 37 C5.67 36.01 5.34 35.02 5 34 C4.34 34 3.68 34 3 34 Z " fill="#591F22" transform="translate(88,91)"/>
<path d="M0 0 C0.66 0.66 1.32 1.32 2 2 C0.56359829 2.19573608 -0.87419504 2.38127816 -2.3125 2.5625 C-3.11300781 2.66691406 -3.91351563 2.77132812 -4.73828125 2.87890625 C-7 3 -7 3 -10 2 C-10 3.98 -10 5.96 -10 8 C-10.99 8.33 -11.98 8.66 -13 9 C-13.33 7.35 -13.66 5.7 -14 4 C-15.29633621 5.06645115 -15.29633621 5.06645115 -15.0625 7.5625 C-15.041875 8.366875 -15.02125 9.17125 -15 10 C-16.423125 10.12375 -16.423125 10.12375 -17.875 10.25 C-21.04751907 10.63036393 -21.04751907 10.63036393 -22.125 12.75 C-22.558125 13.86375 -22.558125 13.86375 -23 15 C-25 17.75 -25 17.75 -27 20 C-27.66 20 -28.32 20 -29 20 C-29.18369141 20.78117187 -29.18369141 20.78117187 -29.37109375 21.578125 C-30.17316317 24.66683954 -31.1176293 27.70202998 -32.0625 30.75 C-32.42472656 31.92046875 -32.78695312 33.0909375 -33.16015625 34.296875 C-33.43730469 35.18890625 -33.71445313 36.0809375 -34 37 C-35.32 37 -36.64 37 -38 37 C-38.33 39.97 -38.66 42.94 -39 46 C-42.34192312 40.98711532 -41.57412596 35.20352637 -40.53515625 29.40625 C-37.70267133 18.81376203 -32.35782465 10.79660967 -23 5 C-15.6392466 1.07426485 -8.39800328 -0.97344242 0 0 Z M-19 5 C-20.98 6.32 -22.96 7.64 -25 9 C-23.02 9.99 -23.02 9.99 -21 11 C-20.67 10.01 -20.34 9.02 -20 8 C-19.34 7.67 -18.68 7.34 -18 7 C-18.33 6.34 -18.66 5.68 -19 5 Z M-27 10 C-28.63676257 11.9600281 -28.63676257 11.9600281 -30 14 C-29.01 14.495 -29.01 14.495 -28 15 C-28 14.34 -28 13.68 -28 13 C-27.34 13 -26.68 13 -26 13 C-25.67 12.01 -25.34 11.02 -25 10 C-25.66 10 -26.32 10 -27 10 Z M-33 17 C-33.66 18.32 -34.32 19.64 -35 21 C-34.01 20.67 -33.02 20.34 -32 20 C-32.33 19.01 -32.66 18.02 -33 17 Z M-37 24 C-36 26 -36 26 -36 26 Z M-38 28 C-38.33 30.31 -38.66 32.62 -39 35 C-38.34 35 -37.68 35 -37 35 C-37 32.69 -37 30.38 -37 28 C-37.33 28 -37.66 28 -38 28 Z " fill="#774144" transform="translate(117,67)"/>
<path d="M0 0 C0.598125 0.185625 1.19625 0.37125 1.8125 0.5625 C4.16408762 1.22093687 4.16408762 1.22093687 7 0 C6.34 2.31 5.68 4.62 5 7 C4.34 7 3.68 7 3 7 C3.309375 7.7734375 3.309375 7.7734375 3.625 8.5625 C4.15407308 12.001475 2.94764168 14.68325412 2 18 C2.30840599 20.15274948 2.30840599 20.15274948 3 22 C3 23.32 3 24.64 3 26 C2.01 26.33 1.02 26.66 0 27 C1.32 27.33 2.64 27.66 4 28 C4 30.31 4 32.62 4 35 C4.66 35 5.32 35 6 35 C6.33 36.65 6.66 38.3 7 40 C7.66 40 8.32 40 9 40 C9 40.66 9 41.32 9 42 C7.02 42.99 5.04 43.98 3 45 C2.505 43.515 2.505 43.515 2 42 C1.34 41.34 0.68 40.68 0 40 C0.66 39.34 1.32 38.68 2 38 C1.01 37.67 0.02 37.34 -1 37 C-0.42655063 34.13275314 -0.1385485 33.1385485 2 31 C1.34 31 0.68 31 0 31 C-0.33 31.66 -0.66 32.32 -1 33 C-1.66 33 -2.32 33 -3 33 C-3.16986545 31.43784452 -3.33573964 29.8752548 -3.5 28.3125 C-3.5928125 27.44238281 -3.685625 26.57226562 -3.78125 25.67578125 C-3.99192226 23.09880809 -4.03339792 20.58416375 -4 18 C-4 16.68 -4 15.36 -4 14 C-4 12.68 -4 11.36 -4 10 C-3.01 9.67 -2.02 9.34 -1 9 C-1.66 8.01 -2.32 7.02 -3 6 C-1.68 5.34 -0.36 4.68 1 4 C0.34 3.67 -0.32 3.34 -1 3 C-0.67 2.01 -0.34 1.02 0 0 Z M-1 19 C-1 19.99 -1 20.98 -1 22 C-0.34 21.34 0.32 20.68 1 20 C0.34 19.67 -0.32 19.34 -1 19 Z " fill="#652528" transform="translate(71,85)"/>
<path d="M0 0 C9.9 0 19.8 0 30 0 C30 0.99 30 1.98 30 3 C22.74 3.33 15.48 3.66 8 4 C8.99 4.99 9.98 5.98 11 7 C11 7.66 11 8.32 11 9 C9.68 9.99 8.36 10.98 7 12 C11.62 12 16.24 12 21 12 C20.67 13.65 20.34 15.3 20 17 C13.07 16.67 6.14 16.34 -1 16 C0.95216435 12.09567131 2.87386607 9.96160056 6 7 C5.01 6.21625 4.02 5.4325 3 4.625 C2.01 3.75875 1.02 2.8925 0 2 C0 1.34 0 0.68 0 0 Z " fill="#541216" transform="translate(47,151)"/>
<path d="M0 0 C27.72 0 55.44 0 84 0 C84 0.33 84 0.66 84 1 C70.635 1.495 70.635 1.495 57 2 C61.29 2.33 65.58 2.66 70 3 C71.24546405 5.49092811 70.7767578 6.41080733 70 9 C66.12286142 9.07456036 62.74071646 9.00711597 59 8 C58.67 8.33 58.34 8.66 58 9 C55.625 9.3125 55.625 9.3125 53 9 C51.02389614 6.95575462 50 5.8823175 50 3 C50.99 2.67 51.98 2.34 53 2 C48.23112363 1.97524936 43.46228479 1.95711597 38.69335938 1.94506836 C37.07160796 1.94004495 35.44986105 1.93322506 33.828125 1.92456055 C31.49478031 1.91240771 29.1614956 1.90675172 26.828125 1.90234375 C26.10506165 1.89718246 25.38199829 1.89202118 24.63702393 1.88670349 C21.2798725 1.88633082 18.20893892 1.95092381 15 3 C15 2.34 15 1.68 15 1 C10.05 1 5.1 1 0 1 C0 0.67 0 0.34 0 0 Z M66 5 C67 7 67 7 67 7 Z " fill="#622D2F" transform="translate(71,166)"/>
<path d="M0 0 C0.90105469 0.02707031 1.80210938 0.05414063 2.73046875 0.08203125 C3.76107422 0.13423828 3.76107422 0.13423828 4.8125 0.1875 C5.40982819 2.95014289 5.8125 5.34782769 5.8125 8.1875 C4.1625 8.1875 2.5125 8.1875 0.8125 8.1875 C0.1525 6.8675 -0.5075 5.5475 -1.1875 4.1875 C-1.1875 5.5075 -1.1875 6.8275 -1.1875 8.1875 C-2.1775 7.8575 -3.1675 7.5275 -4.1875 7.1875 C-4.5175 6.5275 -4.8475 5.8675 -5.1875 5.1875 C-5.8475 6.5075 -6.5075 7.8275 -7.1875 9.1875 C-7.826875 9.0225 -8.46625 8.8575 -9.125 8.6875 C-10.99576821 8.14823333 -10.99576821 8.14823333 -12.1875 8.1875 C-12.1875 8.8475 -12.1875 9.5075 -12.1875 10.1875 C-13.1775 10.1875 -14.1675 10.1875 -15.1875 10.1875 C-15.5175 9.5275 -15.8475 8.8675 -16.1875 8.1875 C-16.1875 9.5075 -16.1875 10.8275 -16.1875 12.1875 C-16.8475 12.1875 -17.5075 12.1875 -18.1875 12.1875 C-18.5175 10.8675 -18.8475 9.5475 -19.1875 8.1875 C-19.1875 9.1775 -19.1875 10.1675 -19.1875 11.1875 C-19.1875 11.8475 -19.1875 12.5075 -19.1875 13.1875 C-20.1775 12.8575 -21.1675 12.5275 -22.1875 12.1875 C-22.1875 11.5275 -22.1875 10.8675 -22.1875 10.1875 C-23.1775 10.1875 -24.1675 10.1875 -25.1875 10.1875 C-24.8575 9.1975 -24.5275 8.2075 -24.1875 7.1875 C-22.1875 6.52083333 -20.1875 5.85416667 -18.1875 5.1875 C-17.8575 4.1975 -17.5275 3.2075 -17.1875 2.1875 C-16.8575 2.5175 -16.5275 2.8475 -16.1875 3.1875 C-14.7334375 2.94 -14.7334375 2.94 -13.25 2.6875 C-10.1875 2.1875 -10.1875 2.1875 -8.1875 3.1875 C-7.79949219 2.69636719 -7.41148438 2.20523438 -7.01171875 1.69921875 C-4.57538304 -0.31975753 -3.11819328 -0.12148805 0 0 Z " fill="#5E2121" transform="translate(112.1875,56.8125)"/>
<path d="M0 0 C1.5625 1.625 1.5625 1.625 3 4 C2.6875 7.25 2.6875 7.25 2 10 C4.97 10.495 4.97 10.495 8 11 C8.33 12.32 8.66 13.64 9 15 C5.375 18 5.375 18 2 18 C2.33 20.31 2.66 22.62 3 25 C1.35 25 -0.3 25 -2 25 C-2 22.69 -2 20.38 -2 18 C-2.804375 17.71125 -3.60875 17.4225 -4.4375 17.125 C-7 16 -7 16 -8 14 C-6.75 12 -6.75 12 -5 10 C-3.68 10 -2.36 10 -1 10 C-1 9.01 -1 8.02 -1 7 C-1.66 7 -2.32 7 -3 7 C-1.125 1.125 -1.125 1.125 0 0 Z M-4 13 C-4 13.66 -4 14.32 -4 15 C-3.01 15 -2.02 15 -1 15 C-1 14.34 -1 13.68 -1 13 C-1.99 13 -2.98 13 -4 13 Z M2 13 C2 13.66 2 14.32 2 15 C2.99 15 3.98 15 5 15 C5 14.34 5 13.68 5 13 C4.01 13 3.02 13 2 13 Z " fill="#581318" transform="translate(112,82)"/>
<path d="M0 0 C1.50707038 2.48223356 0.71111449 4.01239953 0.0625 6.75 C-1.04609375 6.605625 -2.1546875 6.46125 -3.296875 6.3125 C-4.76039983 6.12486861 -6.22394244 5.93737588 -7.6875 5.75 C-8.41710937 5.65460938 -9.14671875 5.55921875 -9.8984375 5.4609375 C-13.28606804 5.02978452 -16.51604859 4.75 -19.9375 4.75 C-19.9375 2.77 -19.9375 0.79 -19.9375 -1.25 C-4.46063043 -2.87782609 -4.46063043 -2.87782609 0 0 Z " fill="#9A686B" transform="translate(126.9375,70.25)"/>
<path d="M0 0 C1.32 0.33 2.64 0.66 4 1 C4 1.66 4 2.32 4 3 C4.66 3 5.32 3 6 3 C6 3.99 6 4.98 6 6 C4.35 6 2.7 6 1 6 C1 6.66 1 7.32 1 8 C2.32 8.33 3.64 8.66 5 9 C5.6875 10.8125 5.6875 10.8125 6 13 C5 14 4 15 3 16 C3.32843384 18.06381575 3.32843384 18.06381575 4 20 C3.67 20.66 3.34 21.32 3 22 C0.69 21.67 -1.62 21.34 -4 21 C-3.47034911 18.08692009 -2.79923991 15.33867264 -1.9375 12.5 C-1.10640826 9.3972575 -0.91457857 7.16059309 -1 4 C-0.70955086 2.65667272 -0.39044206 1.31774196 0 0 Z M1 11 C1 11.66 1 12.32 1 13 C1.66 13 2.32 13 3 13 C3 12.34 3 11.68 3 11 C2.34 11 1.68 11 1 11 Z " fill="#5D1A1F" transform="translate(152,101)"/>
<path d="M0 0 C0.33 0 0.66 0 1 0 C1 1.98 1 3.96 1 6 C29.05 6.33 57.1 6.66 86 7 C86 7.33 86 7.66 86 8 C57.29 8 28.58 8 -1 8 C-1 5.16032769 -0.59732819 2.76264289 0 0 Z " fill="#4D0609" transform="translate(69,170)"/>
<path d="M0 0 C0.66 0 1.32 0 2 0 C5.27673166 7.26579629 6.15600706 13.04363972 6 21 C5.5875 20.525625 5.175 20.05125 4.75 19.5625 C2.86673565 17.63715751 2.86673565 17.63715751 -1 17 C-1.33 13.37 -1.66 9.74 -2 6 C-1.34 6 -0.68 6 0 6 C0 5.34 0 4.68 0 4 C-0.66 3.34 -1.32 2.68 -2 2 C-1.34 1.34 -0.68 0.68 0 0 Z M1 5 C2 7 2 7 2 7 Z M2 9 C3 11 3 11 3 11 Z " fill="#894142" transform="translate(143,87)"/>
<path d="M0 0 C4.4062186 1.34634457 6.43077702 3.19374374 9 7 C9 7.66 9 8.32 9 9 C9.495 9.474375 9.99 9.94875 10.5 10.4375 C12 12 12 12 12 15 C11.401875 14.79375 10.80375 14.5875 10.1875 14.375 C7.71549154 13.69328085 7.71549154 13.69328085 5 16 C5 14.68 5 13.36 5 12 C3.68 11.34 2.36 10.68 1 10 C1 9.01 1 8.02 1 7 C0.01 7 -0.98 7 -2 7 C-1.42415568 4.61435923 -0.77772405 2.33317216 0 0 Z " fill="#814549" transform="translate(140,68)"/>
<path d="M0 0 C0 0.66 0 1.32 0 2 C0.99 2.33 1.98 2.66 3 3 C0.23077149 6.07692057 -2.02850024 7.77800007 -6 9 C-6.99 9 -7.98 9 -9 9 C-9 8.01 -9 7.02 -9 6 C-9.66 7.32 -10.32 8.64 -11 10 C-11.66 10 -12.32 10 -13 10 C-13 8.35 -13 6.7 -13 5 C-11.21046815 4.16209211 -9.41830305 3.32980604 -7.625 2.5 C-6.62726563 2.0359375 -5.62953125 1.571875 -4.6015625 1.09375 C-2 0 -2 0 0 0 Z M-7 6 C-6 8 -6 8 -6 8 Z " fill="#723436" transform="translate(135,136)"/>
<path d="M0 0 C1.45947705 0.06006078 2.91779272 0.1488689 4.375 0.25 C5.59316406 0.31960937 5.59316406 0.31960937 6.8359375 0.390625 C9 1 9 1 10.2890625 3.046875 C10.64097656 4.01367188 10.64097656 4.01367188 11 5 C7.34346173 7.43769218 5.30999899 7.23944439 1 7 C0 6 0 6 -0.0625 2.9375 C-0.041875 1.968125 -0.02125 0.99875 0 0 Z " fill="#863E40" transform="translate(146,158)"/>
<path d="M0 0 C1.79158489 -0.02696365 3.58328473 -0.04637917 5.375 -0.0625 C6.37273437 -0.07410156 7.37046875 -0.08570312 8.3984375 -0.09765625 C11 0 11 0 13 1 C13 1.66 13 2.32 13 3 C12.360625 3.12375 11.72125 3.2475 11.0625 3.375 C10.381875 3.58125 9.70125 3.7875 9 4 C8.67 4.66 8.34 5.32 8 6 C5.36 6 2.72 6 0 6 C0 4.02 0 2.04 0 0 Z " fill="#AD7379" transform="translate(107,69)"/>
<path d="M0 0 C2.5625 0.1875 2.5625 0.1875 4.5625 2.1875 C6.21241582 2.89460678 7.87812256 3.56693989 9.5625 4.1875 C8.5725 4.6825 8.5725 4.6825 7.5625 5.1875 C7.5625 5.8475 7.5625 6.5075 7.5625 7.1875 C5.9125 7.8475 4.2625 8.5075 2.5625 9.1875 C2.2325 8.5275 1.9025 7.8675 1.5625 7.1875 C-0.96483235 6.53194881 -0.96483235 6.53194881 -3.4375 6.1875 C-3.480221 4.52138095 -3.47813832 2.85367115 -3.4375 1.1875 C-2.4375 0.1875 -2.4375 0.1875 0 0 Z M-0.4375 2.1875 C-0.7675 3.1775 -1.0975 4.1675 -1.4375 5.1875 C-0.7775 5.1875 -0.1175 5.1875 0.5625 5.1875 C0.2325 4.1975 -0.0975 3.2075 -0.4375 2.1875 Z M2.5625 4.1875 C3.5625 6.1875 3.5625 6.1875 3.5625 6.1875 Z " fill="#60262A" transform="translate(126.4375,59.8125)"/>
<path d="M0 0 C17.16 0 34.32 0 52 0 C52 0.33 52 0.66 52 1 C50.53191895 1.03758423 50.53191895 1.03758423 49.03417969 1.07592773 C45.39619296 1.17023983 41.75838657 1.27040203 38.12060547 1.37231445 C36.54740626 1.41557338 34.97416283 1.45725474 33.40087891 1.49731445 C31.13690885 1.55523662 28.87315949 1.61886714 26.609375 1.68359375 C25.90818542 1.70030624 25.20699585 1.71701874 24.48455811 1.73423767 C21.19766179 1.83351022 18.14857995 2.00812672 15 3 C15 2.34 15 1.68 15 1 C10.05 1 5.1 1 0 1 C0 0.67 0 0.34 0 0 Z " fill="#5E282A" transform="translate(71,166)"/>
<path d="M0 0 C-0.33 1.98 -0.66 3.96 -1 6 C-7.0546875 6.1953125 -7.0546875 6.1953125 -9 6 C-9.66 5.34 -10.32 4.68 -11 4 C-11 3.01 -11 2.02 -11 1 C-6.87831311 -0.62950412 -4.29299643 -1.26264601 0 0 Z M-8 2 C-4 3 -4 3 -4 3 Z " fill="#853B3F" transform="translate(80,159)"/>
<path d="M0 0 C0.33 0 0.66 0 1 0 C1 2.64 1 5.28 1 8 C1.99 7.67 2.98 7.34 4 7 C4.33 7.99 4.66 8.98 5 10 C4.01 10 3.02 10 2 10 C2.33 12.31 2.66 14.62 3 17 C1.35 17 -0.3 17 -2 17 C-2 14.69 -2 12.38 -2 10 C-2.66 9.67 -3.32 9.34 -4 9 C-2.68 8.67 -1.36 8.34 0 8 C0 5.36 0 2.72 0 0 Z " fill="#5B0C10" transform="translate(112,90)"/>
<path d="M0 0 C1.32 0.33 2.64 0.66 4 1 C2.4722133 4.43752007 0.49818944 7.18953688 -2 10 C-2.66 10 -3.32 10 -4 10 C-4 10.99 -4 11.98 -4 13 C-4.99 12.67 -5.98 12.34 -7 12 C-7 10.68 -7 9.36 -7 8 C-6.34 8 -5.68 8 -5 8 C-5.33 7.01 -5.66 6.02 -6 5 C-5.01 5 -4.02 5 -3 5 C-3 4.34 -3 3.68 -3 3 C-2.34 3 -1.68 3 -1 3 C-0.67 2.01 -0.34 1.02 0 0 Z " fill="#8D5355" transform="translate(92,77)"/>
<path d="M0 0 C1.32 0 2.64 0 4 0 C4.33 1.65 4.66 3.3 5 5 C5.66 5 6.32 5 7 5 C7 5.99 7 6.98 7 8 C8.65 7.67 10.3 7.34 12 7 C12 7.66 12 8.32 12 9 C7.05 9 2.1 9 -3 9 C-3 7.02 -3 5.04 -3 3 C-2.67 3 -2.34 3 -2 3 C-2 4.65 -2 6.3 -2 8 C-0.35 8 1.3 8 3 8 C1.02 4.535 1.02 4.535 -1 1 C-0.67 0.67 -0.34 0.34 0 0 Z " fill="#601D1F" transform="translate(108,152)"/>
<path d="M0 0 C0.66 0.66 1.32 1.32 2 2 C0.56359829 2.19573608 -0.87419504 2.38127816 -2.3125 2.5625 C-3.11300781 2.66691406 -3.91351563 2.77132812 -4.73828125 2.87890625 C-7 3 -7 3 -10 2 C-10 3.98 -10 5.96 -10 8 C-10.99 8.33 -11.98 8.66 -13 9 C-13.28875 8.21625 -13.5775 7.4325 -13.875 6.625 C-14.84912254 3.90328368 -14.84912254 3.90328368 -17 2 C-11.37290856 0.36302794 -5.88338954 -0.83002176 0 0 Z " fill="#865456" transform="translate(117,67)"/>
<path d="M0 0 C-1.49097658 3.7952131 -3.75700849 5.61042731 -7 8 C-7.66 7.67 -8.32 7.34 -9 7 C-8.34 5.68 -7.68 4.36 -7 3 C-8.65 3 -10.3 3 -12 3 C-12 2.67 -12 2.34 -12 2 C-14.97 1.505 -14.97 1.505 -18 1 C-18 0.67 -18 0.34 -18 0 C-15.93831015 -0.19620767 -13.87559002 -0.38160753 -11.8125 -0.5625 C-10.08966797 -0.71912109 -10.08966797 -0.71912109 -8.33203125 -0.87890625 C-5.31368801 -0.98859985 -2.91076064 -0.74002389 0 0 Z " fill="#5B191D" transform="translate(177,150)"/>
<path d="M0 0 C1.9375 0.75 1.9375 0.75 4 2 C4.75 4.125 4.75 4.125 5 6 C4.34 6 3.68 6 3 6 C2.67 7.32 2.34 8.64 2 10 C-1.26954202 9.43628586 -2.82575883 8.50037734 -5 6 C-3.625 4 -3.625 4 -2 2 C-1.34 2 -0.68 2 0 2 C0 1.34 0 0.68 0 0 Z " fill="#612627" transform="translate(80,71)"/>
<path d="M0 0 C0.99 0 1.98 0 3 0 C3 0.66 3 1.32 3 2 C3.66 2 4.32 2 5 2 C5.69848264 3.93356782 6.38344814 5.87202298 7.0625 7.8125 C7.44535156 8.89144531 7.82820312 9.97039062 8.22265625 11.08203125 C9 14 9 14 8 17 C7.34 17 6.68 17 6 17 C5.65066406 15.94039062 5.30132812 14.88078125 4.94140625 13.7890625 C4.48185012 12.40101541 4.02221036 11.01299601 3.5625 9.625 C3.21735352 8.57699219 3.21735352 8.57699219 2.86523438 7.5078125 C1.61264601 3.68189163 1.61264601 3.68189163 0 0 Z " fill="#500B0F" transform="translate(161,79)"/>
<path d="M0 0 C6.27 0 12.54 0 19 0 C19 2.97 19 5.94 19 9 C21.475 9.495 21.475 9.495 24 10 C23.01 10.495 23.01 10.495 22 11 C21.67 11.66 21.34 12.32 21 13 C19.68 12.67 18.36 12.34 17 12 C17.33 8.37 17.66 4.74 18 1 C12.39 1 6.78 1 1 1 C1 2.98 1 4.96 1 7 C0.67 7 0.34 7 0 7 C0 4.69 0 2.38 0 0 Z " fill="#57171C" transform="translate(103,46)"/>
<path d="M0 0 C0.66 0.66 1.32 1.32 2 2 C4.10820797 1.6814823 4.10820797 1.6814823 6 1 C5.67 1.99 5.34 2.98 5 4 C5.66 4.33 6.32 4.66 7 5 C7.625 7.5625 7.625 7.5625 8 10 C7.01 10.495 7.01 10.495 6 11 C5.34 10.67 4.68 10.34 4 10 C4 9.34 4 8.68 4 8 C3.360625 7.855625 2.72125 7.71125 2.0625 7.5625 C0 7 0 7 -1 6 C-1.36442233 4.33985384 -1.69972883 2.67293936 -2 1 C-1.34 0.67 -0.68 0.34 0 0 Z " fill="#652B2C" transform="translate(148,82)"/>
<path d="M0 0 C2.97 0 5.94 0 9 0 C8.67 1.98 8.34 3.96 8 6 C5.6875 6.25 5.6875 6.25 3 6 C1.02389614 3.95575462 0 2.8823175 0 0 Z " fill="#744548" transform="translate(145,169)"/>
<path d="M0 0 C0.99 0.33 1.98 0.66 3 1 C2.67 4.63 2.34 8.26 2 12 C1.01 12.33 0.02 12.66 -1 13 C-2 12 -2 12 -2.1875 8.6875 C-2.01624358 5.31945704 -1.71488025 3.78668041 0 1 C0 0.67 0 0.34 0 0 Z " fill="#8F4F50" transform="translate(82,90)"/>
<path d="M0 0 C0.66 0 1.32 0 2 0 C1.27381105 4.35713369 -0.76894848 5.96436694 -4.078125 8.671875 C-6.57698733 10.39873108 -9.0612562 11.28323322 -12 12 C-11.67 11.01 -11.34 10.02 -11 9 C-7.9375 7.8125 -7.9375 7.8125 -5 7 C-5 6.01 -5 5.02 -5 4 C-4.01 4 -3.02 4 -2 4 C-2 3.34 -2 2.68 -2 2 C-1.34 2 -0.68 2 0 2 C0 1.34 0 0.68 0 0 Z " fill="#6D3034" transform="translate(137,127)"/>
<path d="M0 0 C1.11375 0.495 1.11375 0.495 2.25 1 C5.13883312 2.22782871 5.13883312 2.22782871 9 2 C10 3 10 3 10.0625 6.0625 C10.041875 7.031875 10.02125 8.00125 10 9 C6.78956118 7.61811547 4.95063635 6.07578097 2.75 3.375 C2.22921875 2.74335937 1.7084375 2.11171875 1.171875 1.4609375 C0.78515625 0.97882813 0.3984375 0.49671875 0 0 Z " fill="#581A1C" transform="translate(82,108)"/>
<path d="M0 0 C0 3 0 3 -1.2421875 4.60546875 C-1.78101563 5.12753906 -2.31984375 5.64960937 -2.875 6.1875 C-3.40867188 6.71730469 -3.94234375 7.24710937 -4.4921875 7.79296875 C-6 9 -6 9 -8 9 C-8.33 7.35 -8.66 5.7 -9 4 C-7.68 3.01 -6.36 2.02 -5 1 C-4.67 1.66 -4.34 2.32 -4 3 C-2.68 2.01 -1.36 1.02 0 0 Z " fill="#6B3033" transform="translate(141,106)"/>
<path d="M0 0 C0 3.56229451 -0.76109009 4.41109679 -2.875 7.1875 C-3.40867188 7.90292969 -3.94234375 8.61835937 -4.4921875 9.35546875 C-4.98976562 9.89816406 -5.48734375 10.44085938 -6 11 C-6.66 11 -7.32 11 -8 11 C-8 10.34 -8 9.68 -8 9 C-8.66 8.67 -9.32 8.34 -10 8 C-9.34 6.68 -8.68 5.36 -8 4 C-6.68 4 -5.36 4 -4 4 C-1.74934898 2.08333079 -1.74934898 2.08333079 0 0 Z " fill="#6D3232" transform="translate(139,97)"/>
<path d="M0 0 C4.79095495 0.5842628 8.58388318 2.10737851 13 4 C14.98821313 4.39764263 16.98732362 4.75455166 19 5 C18.67 5.66 18.34 6.32 18 7 C11.03949747 6.61330541 6.0605925 4.36561591 0 1 C0 0.67 0 0.34 0 0 Z " fill="#5A3235" transform="translate(91,134)"/>
<path d="M0 0 C0.33 0.99 0.66 1.98 1 3 C0.67 3.66 0.34 4.32 0 5 C1.65 5 3.3 5 5 5 C5 5.66 5 6.32 5 7 C3.68 7 2.36 7 1 7 C0.67 9.97 0.34 12.94 0 16 C-2.24234009 12.63648987 -2.27098215 11.37689944 -2.25 7.4375 C-2.25515625 6.46683594 -2.2603125 5.49617188 -2.265625 4.49609375 C-2 2 -2 2 0 0 Z " fill="#71383D" transform="translate(78,97)"/>
<path d="M0 0 C1.23556641 0.01740234 1.23556641 0.01740234 2.49609375 0.03515625 C3.32238281 0.04417969 4.14867188 0.05320313 5 0.0625 C5.63808594 0.07410156 6.27617188 0.08570313 6.93359375 0.09765625 C6.60359375 0.75765625 6.27359375 1.41765625 5.93359375 2.09765625 C5.27359375 2.09765625 4.61359375 2.09765625 3.93359375 2.09765625 C3.60359375 3.08765625 3.27359375 4.07765625 2.93359375 5.09765625 C0.95359375 5.09765625 -1.02640625 5.09765625 -3.06640625 5.09765625 C-3.06640625 0.14491523 -3.06640625 0.14491523 0 0 Z " fill="#7C4548" transform="translate(79.06640625,169.90234375)"/>
<path d="M0 0 C4.62 0 9.24 0 14 0 C13.67 1.65 13.34 3.3 13 5 C11.02 5 9.04 5 7 5 C6.67 4.34 6.34 3.68 6 3 C6.99 2.67 7.98 2.34 9 2 C5.7 2 2.4 2 -1 2 C-0.67 1.34 -0.34 0.68 0 0 Z " fill="#723234" transform="translate(76,169)"/>
<path d="M0 0 C0.99 0 1.98 0 3 0 C3 0.66 3 1.32 3 2 C3.66 2 4.32 2 5 2 C5.33 2.99 5.66 3.98 6 5 C5.34 5.66 4.68 6.32 4 7 C3.01 7 2.02 7 1 7 C1 6.34 1 5.68 1 5 C0.01 4.67 -0.98 4.34 -2 4 C-1.34 2.68 -0.68 1.36 0 0 Z " fill="#6C3538" transform="translate(84,67)"/>
<path d="M0 0 C0.33 0 0.66 0 1 0 C1.18175781 0.64066406 1.36351563 1.28132813 1.55078125 1.94140625 C3.06270045 7.14395897 4.75000671 12.07144327 7 17 C6.34 17.33 5.68 17.66 5 18 C4.18247697 16.41925436 3.37118003 14.83528777 2.5625 13.25 C2.11003906 12.36828125 1.65757813 11.4865625 1.19140625 10.578125 C-0.63400293 6.62805924 -1.34680368 4.19005588 0 0 Z " fill="#572D31" transform="translate(78,109)"/>
<path d="M0 0 C4.10180903 1.36726968 4.71255801 3.62642791 6.71875 7.28515625 C7.1415625 7.85105469 7.564375 8.41695312 8 9 C8.99 9 9.98 9 11 9 C11 9.66 11 10.32 11 11 C9.35 11.33 7.7 11.66 6 12 C4.99466333 10.37829621 3.99588093 8.75252763 3 7.125 C2.443125 6.22007813 1.88625 5.31515625 1.3125 4.3828125 C0 2 0 2 0 0 Z " fill="#5D262B" transform="translate(88,91)"/>
<path d="M0 0 C4.35535069 1.16142685 6.64619703 2.07699505 9 6 C8.01 7.485 8.01 7.485 7 9 C6.01 8.01 5.02 7.02 4 6 C4.66 6 5.32 6 6 6 C5.34 5.34 4.68 4.68 4 4 C3.01 5.485 3.01 5.485 2 7 C0 1.125 0 1.125 0 0 Z " fill="#974549" transform="translate(127,71)"/>
<path d="M0 0 C1.32 0 2.64 0 4 0 C4 0.99 4 1.98 4 3 C4.99 2.67 5.98 2.34 7 2 C7 2.66 7 3.32 7 4 C5.02 4.99 3.04 5.98 1 7 C0.67 6.01 0.34 5.02 0 4 C-0.66 3.34 -1.32 2.68 -2 2 C-1.34 1.34 -0.68 0.68 0 0 Z " fill="#611F20" transform="translate(73,123)"/>
<path d="M0 0 C0.99 0.33 1.98 0.66 3 1 C3.34342449 2.33076989 3.67619874 3.66431979 4 5 C4.99 5.66 5.98 6.32 7 7 C6.01 7.99 5.02 8.98 4 10 C1.49642808 8.74821404 -0.06433379 7.00018842 -2 5 C-1.67 4.34 -1.34 3.68 -1 3 C-0.67 2.01 -0.34 1.02 0 0 Z " fill="#A36B6F" transform="translate(130,74)"/>
<path d="M0 0 C0.99 0.33 1.98 0.66 3 1 C5.28070175 7.15789474 5.28070175 7.15789474 4 11 C3.01 10.67 2.02 10.34 1 10 C0.67 6.7 0.34 3.4 0 0 Z " fill="#9E5F61" transform="translate(141,94)"/>
<path d="M0 0 C0 1.65 0 3.3 0 5 C-1.875 5.625 -1.875 5.625 -4 6 C-4.66 5.34 -5.32 4.68 -6 4 C-6 3.01 -6 2.02 -6 1 C-4 0 -4 0 0 0 Z " fill="#7E2D2F" transform="translate(75,159)"/>
<path d="M0 0 C2.31 0.33 4.62 0.66 7 1 C7 4 7 4 5.5 5.6875 C5.005 6.120625 4.51 6.55375 4 7 C0 2.25 0 2.25 0 0 Z " fill="#57181A" transform="translate(146,123)"/>
<path d="M0 0 C6.75 -0.125 6.75 -0.125 9 1 C9 1.66 9 2.32 9 3 C8.071875 3.185625 8.071875 3.185625 7.125 3.375 C4.80879168 3.87197356 4.80879168 3.87197356 3 6 C2.87625 5.195625 2.7525 4.39125 2.625 3.5625 C2.315625 2.2940625 2.315625 2.2940625 2 1 C1.34 0.67 0.68 0.34 0 0 Z " fill="#CC9697" transform="translate(111,69)"/>
<path d="M0 0 C1.46484375 1.33463542 2.9296875 2.66927083 4.39453125 4.00390625 C4.92433594 4.33261719 5.45414062 4.66132812 6 5 C6.99 4.67 7.98 4.34 9 4 C8.67 5.32 8.34 6.64 8 8 C6.68 8 5.36 8 4 8 C0 2.88888889 0 2.88888889 0 0 Z " fill="#612A2B" transform="translate(85,99)"/>
<path d="M0 0 C1.32 0 2.64 0 4 0 C4 2.64 4 5.28 4 8 C3.01 7.67 2.02 7.34 1 7 C-0.1875 3.9375 -0.1875 3.9375 -1 1 C-0.67 0.67 -0.34 0.34 0 0 Z " fill="#5B1C1D" transform="translate(107,57)"/>
<path d="M0 0 C-0.66 1.65 -1.32 3.3 -2 5 C-3.65 4.67 -5.3 4.34 -7 4 C-7.33 3.01 -7.66 2.02 -8 1 C-5.10765685 0.17361624 -3.11257569 0 0 0 Z " fill="#703335" transform="translate(139,170)"/>
<path d="M0 0 C1.32 0 2.64 0 4 0 C4.66 1.65 5.32 3.3 6 5 C4.02 5 2.04 5 0 5 C0 3.35 0 1.7 0 0 Z " fill="#995757" transform="translate(147,160)"/>
<path d="M0 0 C0.33 0.66 0.66 1.32 1 2 C2.32 2 3.64 2 5 2 C4.34 3.98 3.68 5.96 3 8 C2.34 7.34 1.68 6.68 1 6 C1.33 5.34 1.66 4.68 2 4 C1.01 4 0.02 4 -1 4 C-0.67 2.68 -0.34 1.36 0 0 Z " fill="#5F2428" transform="translate(113,150)"/>
<path d="M0 0 C0.66 0.33 1.32 0.66 2 1 C2.625 3.5625 2.625 3.5625 3 6 C2.01 6.33 1.02 6.66 0 7 C-0.99 6.01 -1.98 5.02 -3 4 C-2.01 2.68 -1.02 1.36 0 0 Z " fill="#70383E" transform="translate(90,137)"/>
<path d="M0 0 C1.65 0.33 3.3 0.66 5 1 C5.33 2.98 5.66 4.96 6 7 C5.01 7.495 5.01 7.495 4 8 C4.33 6.68 4.66 5.36 5 4 C2.69 3.67 0.38 3.34 -2 3 C-1.34 2.01 -0.68 1.02 0 0 Z " fill="#712D32" transform="translate(72,119)"/>
<path d="M0 0 C0.598125 0.185625 1.19625 0.37125 1.8125 0.5625 C4.16408762 1.22093687 4.16408762 1.22093687 7 0 C6.67 1.32 6.34 2.64 6 4 C3.69 3.67 1.38 3.34 -1 3 C-0.67 2.01 -0.34 1.02 0 0 Z " fill="#55252B" transform="translate(71,85)"/>
<path d="M0 0 C0.99 0.33 1.98 0.66 3 1 C3.6875 3.0625 3.6875 3.0625 4 5 C2.02 5.66 0.04 6.32 -2 7 C-1.42415568 4.61435923 -0.77772405 2.33317216 0 0 Z " fill="#722328" transform="translate(140,68)"/>
<path d="M0 0 C0.68707555 2.49064888 1 4.37886292 1 7 C-0.65 7 -2.3 7 -4 7 C-3.01 6.67 -2.02 6.34 -1 6 C-1.66 5.67 -2.32 5.34 -3 5 C-3 3.68 -3 2.36 -3 1 C-2.01 0.67 -1.02 0.34 0 0 Z " fill="#702E33" transform="translate(117,58)"/>
<path d="M0 0 C1.32 0 2.64 0 4 0 C4 1.98 4 3.96 4 6 C1 5 1 5 -0.1875 2.9375 C-0.5896875 1.9784375 -0.5896875 1.9784375 -1 1 C-0.67 0.67 -0.34 0.34 0 0 Z " fill="#550C0F" transform="translate(108,152)"/>
<path d="M0 0 C0.66 1.32 1.32 2.64 2 4 C0.35 4.66 -1.3 5.32 -3 6 C-3.33 4.68 -3.66 3.36 -4 2 C-2.68 1.34 -1.36 0.68 0 0 Z " fill="#580D12" transform="translate(99,101)"/>
<path d="M0 0 C0.66 0 1.32 0 2 0 C3.4606285 2.64738916 4 3.89448334 4 7 C2.68 6.67 1.36 6.34 0 6 C0 5.34 0 4.68 0 4 C-0.66 3.34 -1.32 2.68 -2 2 C-1.34 1.34 -0.68 0.68 0 0 Z " fill="#7E4745" transform="translate(143,87)"/>
<path d="M0 0 C0.33 1.32 0.66 2.64 1 4 C-0.98 4.33 -2.96 4.66 -5 5 C-4.67 3.68 -4.34 2.36 -4 1 C-2.68 0.67 -1.36 0.34 0 0 Z " fill="#8F5759" transform="translate(101,73)"/>
<path d="M0 0 C2 3 2 3 3 6 C0 6 0 6 -3 5 C-1.125 1.125 -1.125 1.125 0 0 Z " fill="#622A2C" transform="translate(135,121)"/>
<path d="M0 0 C0.99 0.33 1.98 0.66 3 1 C4.1875 4.0625 4.1875 4.0625 5 7 C4.01 7.66 3.02 8.32 2 9 C1 6 1 6 1 4 C0.68521554 2.66216607 0.35412344 1.32796291 0 0 Z " fill="#60282C" transform="translate(99,105)"/>
<path d="M0 0 C1.65 0 3.3 0 5 0 C4.67 0.66 4.34 1.32 4 2 C3.34 2 2.68 2 2 2 C2 3.65 2 5.3 2 7 C1.01 6.34 0.02 5.68 -1 5 C-0.67 3.35 -0.34 1.7 0 0 Z " fill="#4A0A10" transform="translate(60,78)"/>
<path d="M0 0 C1.65 0.33 3.3 0.66 5 1 C4.67 1.66 4.34 2.32 4 3 C3.34 3 2.68 3 2 3 C2 3.66 2 4.32 2 5 C0.68 5 -0.64 5 -2 5 C-1.67 4.34 -1.34 3.68 -1 3 C-0.67 2.01 -0.34 1.02 0 0 Z " fill="#6E2631" transform="translate(104,142)"/>
<path d="M0 0 C0.66 0 1.32 0 2 0 C0.7508258 3.45925163 -0.67527795 6.14693203 -3 9 C-3 4.73350364 -2.43160605 3.36683915 0 0 Z " fill="#7F4C51" transform="translate(134,90)"/>
<path d="M0 0 C2.475 0.495 2.475 0.495 5 1 C5.33 2.65 5.66 4.3 6 6 C5.01 6.33 4.02 6.66 3 7 C2.690625 6.21625 2.38125 5.4325 2.0625 4.625 C1.07124962 2.07669872 1.07124962 2.07669872 0 0 Z " fill="#985C5F" transform="translate(137,87)"/>
<path d="M0 0 C1.32 0 2.64 0 4 0 C4.33 1.65 4.66 3.3 5 5 C3.02 4.34 1.04 3.68 -1 3 C-0.67 2.01 -0.34 1.02 0 0 Z " fill="#6A3331" transform="translate(147,78)"/>
<path d="M0 0 C2.31 0.33 4.62 0.66 7 1 C6.67 1.99 6.34 2.98 6 4 C4.35 3.67 2.7 3.34 1 3 C0.67 2.01 0.34 1.02 0 0 Z " fill="#7A4444" transform="translate(121,169)"/>
<path d="M0 0 C0.66 0.99 1.32 1.98 2 3 C0.35 5.31 -1.3 7.62 -3 10 C-4 7 -4 7 -3.22265625 5.17578125 C-2.1484375 3.45052083 -1.07421875 1.72526042 0 0 Z " fill="#52292C" transform="translate(143,119)"/>
<path d="M0 0 C0.99 0.495 0.99 0.495 2 1 C2 1.66 2 2.32 2 3 C3.32 3.33 4.64 3.66 6 4 C5.01 5.485 5.01 5.485 4 7 C3.34 7 2.68 7 2 7 C0.5393715 4.35261084 0 3.10551666 0 0 Z " fill="#61282A" transform="translate(92,112)"/>
<path d="M0 0 C0.66 0 1.32 0 2 0 C2 0.66 2 1.32 2 2 C3.65 2 5.3 2 7 2 C7 2.66 7 3.32 7 4 C5.02 4 3.04 4 1 4 C0.67 2.68 0.34 1.36 0 0 Z " fill="#5D3132" transform="translate(108,115)"/>
<path d="M0 0 C3.3 0 6.6 0 10 0 C6.71299843 1.64350079 4.52069985 2.41321669 1 3 C0.67 2.01 0.34 1.02 0 0 Z " fill="#65262B" transform="translate(108,108)"/>
<path d="M0 0 C0.66 0.99 1.32 1.98 2 3 C1.34 3 0.68 3 0 3 C0.33 3.99 0.66 4.98 1 6 C0.01 6 -0.98 6 -2 6 C-2.66 4.68 -3.32 3.36 -4 2 C-2.68 1.34 -1.36 0.68 0 0 Z " fill="#4D0C0E" transform="translate(94,105)"/>
<path d="M0 0 C0.99 0 1.98 0 3 0 C2.67 1.65 2.34 3.3 2 5 C0.68 4.67 -0.64 4.34 -2 4 C-1.34 2.68 -0.68 1.36 0 0 Z " fill="#5F242A" transform="translate(84,67)"/>
<path d="M0 0 C0.66 0 1.32 0 2 0 C2 0.66 2 1.32 2 2 C2.66 2 3.32 2 4 2 C4.33 3.32 4.66 4.64 5 6 C4.01 5.67 3.02 5.34 2 5 C2 4.34 2 3.68 2 3 C1.01 3 0.02 3 -1 3 C-0.67 2.01 -0.34 1.02 0 0 Z " fill="#531619" transform="translate(88,64)"/>
</svg>
